<svg width="56" height="56" viewBox="0 0 56 56" fill="none" xmlns="http://www.w3.org/2000/svg">
<path d="M25.4557 2.65056C26.8437 1.20456 29.1563 1.20456 30.5443 2.65057L32.9811 5.18905C33.8454 6.08938 35.1211 6.46593 36.3357 6.17922L39.7391 5.37584C41.6818 4.91726 43.6176 6.1609 44.0081 8.11844L44.7129 11.6516C44.9549 12.8648 45.8149 13.8625 46.9791 14.2808L50.3319 15.4853C52.1962 16.1551 53.1433 18.2285 52.4291 20.0762L51.1129 23.481C50.67 24.6265 50.855 25.9199 51.6012 26.8954L53.812 29.7857C55.013 31.3557 54.6893 33.6059 53.0947 34.7738L50.1853 36.9046C49.1918 37.6323 48.6497 38.8255 48.7553 40.0524L49.0672 43.6759C49.2377 45.6568 47.738 47.387 45.753 47.4996L42.2368 47.6989C40.9955 47.7693 39.8829 48.4881 39.3085 49.5907L37.6644 52.7468C36.7393 54.5225 34.5234 55.1729 32.7855 54.1789L29.751 52.4433C28.6661 51.8229 27.3339 51.8229 26.249 52.4433L23.2145 54.1789C21.4766 55.1729 19.2607 54.5225 18.3356 52.7468L16.6915 49.5907C16.1171 48.4881 15.0045 47.7693 13.7632 47.6989L10.247 47.4996C8.26202 47.387 6.76231 45.6568 6.9328 43.6759L7.24465 40.0524C7.35025 38.8255 6.80822 37.6323 5.81469 36.9046L2.90533 34.7738C1.31066 33.6059 0.98703 31.3557 2.18795 29.7857L4.39878 26.8954C5.14497 25.9199 5.32995 24.6265 4.88711 23.481L3.57093 20.0762C2.85666 18.2285 3.80381 16.1551 5.66809 15.4853L9.02088 14.2808C10.1851 13.8625 11.0451 12.8648 11.2871 11.6516L11.9919 8.11844C12.3824 6.1609 14.3182 4.91726 16.2609 5.37584L19.6643 6.17922C20.8789 6.46593 22.1546 6.08938 23.0189 5.18905L25.4557 2.65056Z" fill="url(#paint0_linear_18792_43718)" style=""/>
<path d="M25.4557 2.65056C26.8437 1.20456 29.1563 1.20456 30.5443 2.65057L32.9811 5.18905C33.8454 6.08938 35.1211 6.46593 36.3357 6.17922L39.7391 5.37584C41.6818 4.91726 43.6176 6.1609 44.0081 8.11844L44.7129 11.6516C44.9549 12.8648 45.8149 13.8625 46.9791 14.2808L50.3319 15.4853C52.1962 16.1551 53.1433 18.2285 52.4291 20.0762L51.1129 23.481C50.67 24.6265 50.855 25.9199 51.6012 26.8954L53.812 29.7857C55.013 31.3557 54.6893 33.6059 53.0947 34.7738L50.1853 36.9046C49.1918 37.6323 48.6497 38.8255 48.7553 40.0524L49.0672 43.6759C49.2377 45.6568 47.738 47.387 45.753 47.4996L42.2368 47.6989C40.9955 47.7693 39.8829 48.4881 39.3085 49.5907L37.6644 52.7468C36.7393 54.5225 34.5234 55.1729 32.7855 54.1789L29.751 52.4433C28.6661 51.8229 27.3339 51.8229 26.249 52.4433L23.2145 54.1789C21.4766 55.1729 19.2607 54.5225 18.3356 52.7468L16.6915 49.5907C16.1171 48.4881 15.0045 47.7693 13.7632 47.6989L10.247 47.4996C8.26202 47.387 6.76231 45.6568 6.9328 43.6759L7.24465 40.0524C7.35025 38.8255 6.80822 37.6323 5.81469 36.9046L2.90533 34.7738C1.31066 33.6059 0.98703 31.3557 2.18795 29.7857L4.39878 26.8954C5.14497 25.9199 5.32995 24.6265 4.88711 23.481L3.57093 20.0762C2.85666 18.2285 3.80381 16.1551 5.66809 15.4853L9.02088 14.2808C10.1851 13.8625 11.0451 12.8648 11.2871 11.6516L11.9919 8.11844C12.3824 6.1609 14.3182 4.91726 16.2609 5.37584L19.6643 6.17922C20.8789 6.46593 22.1546 6.08938 23.0189 5.18905L25.4557 2.65056Z" fill="url(#paint1_linear_18792_43718)" fill-opacity="0.1" style=""/>
<path d="M47.6756 28.7567C47.6756 39.6233 38.8665 48.4324 27.9999 48.4324C17.1333 48.4324 8.32422 39.6233 8.32422 28.7567C8.32422 17.8902 17.1333 9.08105 27.9999 9.08105C38.8665 9.08105 47.6756 17.8902 47.6756 28.7567ZM12.375 28.7567C12.375 37.3861 19.3705 44.3817 27.9999 44.3817C36.6293 44.3817 43.6248 37.3861 43.6248 28.7567C43.6248 20.1273 36.6293 13.1318 27.9999 13.1318C19.3705 13.1318 12.375 20.1273 12.375 28.7567Z" fill="white" fill-opacity="0.5" style="fill:white;fill-opacity:0.5;"/>
<defs>
<linearGradient id="paint0_linear_18792_43718" x1="36.0576" y1="56" x2="18.3958" y2="6.1913" gradientUnits="userSpaceOnUse">
<stop offset="0.0625" stop-color="#87704F" style="stop-color:#87704F;stop-color:color(display-p3 0.5294 0.4411 0.3088);stop-opacity:1;"/>
<stop offset="1" stop-color="#CBC6C5" style="stop-color:#CBC6C5;stop-color:color(display-p3 0.7960 0.7784 0.7728);stop-opacity:1;"/>
</linearGradient>
<linearGradient id="paint1_linear_18792_43718" x1="-9.61713" y1="-4.375" x2="32.9224" y2="71.5543" gradientUnits="userSpaceOnUse">
<stop stop-color="white" style="stop-color:white;stop-opacity:1;"/>
<stop offset="1" stop-color="white" stop-opacity="0" style="stop-color:none;stop-opacity:0;"/>
</linearGradient>
</defs>
</svg>
