<svg width="48" height="48" viewBox="0 0 48 48" fill="none" xmlns="http://www.w3.org/2000/svg">
<g clip-path="url(#clip0_19340_14680)">
<path d="M48 0H0V48H48V0Z" fill="#00ADD8" style="fill:#00ADD8;fill:color(display-p3 0.0000 0.6784 0.8471);fill-opacity:1;"/>
<path d="M32.852 12.0627C32.8313 12.0424 32.8069 12.0264 32.78 12.0157C32.7531 12.0049 32.7244 11.9996 32.6954 12H15.1975C15.1396 12.0022 15.0843 12.0243 15.0409 12.0627C15.0086 12.1139 14.9948 12.1747 15.0018 12.2349L17.9377 30.0069C17.9452 30.0553 17.9699 30.0993 18.0073 30.131C18.0447 30.1626 18.0922 30.1797 18.1412 30.1791H21.7504L21.9931 33.0759H20.4743L24.0052 36.6068L27.5517 33.068H26.0329L26.2756 30.1791H29.9474C29.9964 30.1797 30.0439 30.1626 30.0813 30.131C30.1187 30.0993 30.1434 30.0553 30.151 30.0069L32.899 12.2349C32.9032 12.2045 32.9012 12.1736 32.8931 12.144C32.8851 12.1144 32.8711 12.0867 32.852 12.0627ZM26.0955 26.2959C25.5007 26.7671 24.7641 27.0235 24.0052 27.0235C23.2463 27.0235 22.5097 26.7671 21.9148 26.2959C21.4451 25.7949 21.1531 25.1533 21.0837 24.47C21.0144 23.7867 21.1716 23.0996 21.5312 22.5145C21.813 21.9899 23.8251 18.9679 23.9973 18.7095C24.1618 18.9679 26.1816 21.9899 26.4635 22.5145C26.8251 23.098 26.9849 23.7841 26.9185 24.4674C26.852 25.1506 26.5628 25.7931 26.0955 26.2959ZM31.6385 15.8049C31.3701 15.7121 31.0859 15.6733 30.8024 15.6908C30.5189 15.7082 30.2416 15.7816 29.9866 15.9067C27.8179 16.7836 26.3382 17.1046 24.06 16.3843C22.6194 15.938 21.2728 14.9986 19.6835 15.6014C18.6629 16.0425 17.5691 16.2895 16.4579 16.3295L15.7612 12.7986H32.1396L31.6385 15.8049Z" fill="white" style="fill:white;fill-opacity:1;"/>
</g>
<defs>
<clipPath id="clip0_19340_14680">
<rect width="48" height="48" rx="24" fill="white" style="fill:white;fill-opacity:1;"/>
</clipPath>
</defs>
</svg>
