<svg width="48" height="48" viewBox="0 0 48 48" fill="none" xmlns="http://www.w3.org/2000/svg">
<g clip-path="url(#clip0_18792_43811)">
<path d="M0.0649498 0.000607429L0 47.9316L47.935 48.0006L48 0.0695722L0.0649498 0.000607429Z" fill="#48773C" style="fill:#48773C;fill:color(display-p3 0.2824 0.4667 0.2353);fill-opacity:1;"/>
<path d="M42.0515 24.0705C40.0025 21.3084 37.336 19.0637 34.2648 17.5155C31.1937 15.9674 27.8031 15.1588 24.3638 15.1543C20.9245 15.1498 17.5318 15.9495 14.4566 17.4896C11.3814 19.0297 8.70902 21.2674 6.65279 24.0242L6.51367 24.2174L6.65279 24.4183C8.70021 27.1823 11.3659 29.4289 14.4368 30.9787C17.5078 32.5285 20.8987 33.3384 24.3385 33.3436C27.7784 33.3489 31.1718 32.5494 34.2474 31.009C37.3231 29.4686 39.9956 27.2301 42.0515 24.4724C42.0917 24.4564 42.1261 24.4286 42.1504 24.3928C42.1746 24.357 42.1876 24.3147 42.1876 24.2715C42.1876 24.2282 42.1746 24.186 42.1504 24.1501C42.1261 24.1143 42.0917 24.0866 42.0515 24.0705ZM18.4008 19.6422C18.5013 19.5031 18.8182 19.1012 18.8568 19.0471C18.9553 18.9545 19.0849 18.9021 19.2201 18.9003C19.3283 18.9003 19.4829 18.9389 19.4983 19.0239C19.5084 19.1898 19.4737 19.3553 19.3979 19.5031C19.1908 19.7087 18.9162 19.8323 18.625 19.8509C18.4549 19.8509 18.3854 19.6963 18.4163 19.6422M18.0376 20.415V20.3687C18.2041 20.2345 18.4112 20.161 18.625 20.16C18.8105 20.1214 19.0578 20.2218 19.081 20.3455C19.1042 20.4691 18.6172 20.6855 18.5245 20.7705C18.2694 21.0101 17.8675 21.4893 17.6357 21.5434C17.5736 21.5679 17.5045 21.5679 17.4424 21.5434C17.5951 21.1594 17.7814 20.7896 17.9989 20.4382M21.9793 28.6457C21.9154 28.9977 21.7579 29.3261 21.5233 29.5963C21.247 29.8488 20.8851 29.9869 20.5108 29.9827C20.1708 29.9827 20.1244 29.0553 20.1244 28.5916C20.1244 28.4293 19.9003 28.9085 19.7843 27.9424C19.707 27.3242 19.3051 28.0043 19.2819 27.5869C19.2587 27.1696 19.0501 27.2623 18.8491 26.9996C18.6482 26.7368 18.3776 26.9996 18.0762 27.1541C17.7748 27.3087 17.9062 27.3551 17.4888 27.2237C17.1063 26.3053 16.9093 25.3204 16.9091 24.3256C16.9091 24.0705 16.9091 23.8232 16.9478 23.5527C16.9595 23.5273 16.9752 23.5038 16.9942 23.4832C17.3883 23.0118 17.3806 22.9036 17.3806 22.9036L17.8134 22.7567C18.2288 22.8237 18.6374 22.9272 19.0346 23.0659C19.4674 23.2281 20.1399 23.5914 20.5804 23.4291C20.8664 23.3132 21.0828 23.1586 21.0596 22.919C21.0364 22.6794 20.7968 22.5481 20.5108 22.749C20.4026 22.8263 20.1785 22.3008 20.0085 22.3239C19.8384 22.3471 20.2249 22.9422 20.0703 22.9654C19.9157 22.9886 19.622 22.3548 19.5756 22.2467C19.5293 22.1385 19.2897 21.8911 19.081 22.0844C18.6482 22.5017 17.9294 22.4708 17.7902 22.579C17.3497 22.9036 17.2415 22.4708 17.2492 22.208C17.2637 22.1477 17.2817 22.0884 17.3033 22.0303C17.4234 21.9491 17.5614 21.8983 17.7054 21.8821C17.8494 21.866 17.9952 21.885 18.1303 21.9375C18.3235 22.0689 18.4627 21.9375 18.54 21.8293C18.6172 21.7211 18.5863 21.6284 18.54 21.5279C18.4936 21.4274 18.6327 21.3424 18.7332 21.3193C18.9288 21.2219 19.1174 21.1109 19.2974 20.9869C19.667 20.8691 20.064 20.8691 20.4336 20.9869C20.5586 21.059 20.7054 21.0839 20.8473 21.057C20.9891 21.03 21.1166 20.953 21.2065 20.8401C21.3562 20.6572 21.5399 20.505 21.7475 20.3919C21.8557 20.3378 21.477 19.99 21.1678 20.3919C20.8586 20.7937 20.7041 20.8015 20.5649 20.8015C20.4258 20.8015 19.5602 20.5928 19.452 20.3146C19.3438 20.0363 19.7225 19.8431 20.0394 19.6886C20.5013 19.5812 20.9722 19.5165 21.446 19.4954C21.8943 19.3949 22.474 19.1708 22.7677 19.364C23.0614 19.5572 21.5543 19.905 22.0412 20.1368C22.2189 20.2373 23.015 19.6808 23.2855 19.5417C23.927 19.2094 22.6672 19.1012 22.8295 18.4289C22.9918 17.7565 21.2837 17.9652 20.4258 18.027C21.6046 17.2704 22.9746 16.8656 24.3753 16.86C26.0471 16.8624 27.6696 17.4269 28.9817 18.4628C30.2938 19.4987 31.2194 20.9457 31.6096 22.5712C31.6227 22.6868 31.6227 22.8035 31.6096 22.919C31.5756 23.0037 31.5184 23.0771 31.4446 23.1309C31.3708 23.1846 31.2834 23.2165 31.1923 23.223C31.1012 23.2294 31.0102 23.2101 30.9295 23.1673C30.8489 23.1245 30.7819 23.0599 30.7363 22.9808C30.659 22.8726 30.3421 22.5712 30.3498 23.089C30.3576 23.6068 30.8522 23.6532 30.3498 23.9623C30.1194 24.1249 29.8552 24.2332 29.5769 24.2792C29.4436 24.3831 29.339 24.5192 29.2727 24.6746C29.2065 24.8301 29.1808 24.9999 29.1982 25.168C29.2523 25.4539 29.9247 26.2267 29.4223 26.1958C28.9565 25.9684 28.5592 25.6218 28.2707 25.1911C28.1162 24.7815 27.9461 24.3719 27.8302 24.0628C27.815 23.9875 27.7804 23.9174 27.7298 23.8596C27.6792 23.8018 27.6143 23.7582 27.5416 23.7332C27.469 23.7082 27.391 23.7027 27.3156 23.7171C27.2401 23.7315 27.1697 23.7655 27.1114 23.8155C26.8486 23.9933 27.1887 24.171 26.9955 24.5883C26.8022 25.0057 26.6708 25.3148 26.3926 24.9979C25.6661 24.1633 24.6072 24.5729 24.4449 23.6455C24.3521 23.1431 23.9193 23.1895 23.5638 22.8726C23.2083 22.5558 22.9996 22.4399 22.9377 22.6408C22.8759 22.8417 24.0739 23.7691 24.1589 24.0087C24.2826 24.3719 23.7957 24.6888 23.4479 24.7815C23.1 24.8743 22.9377 24.5806 22.5899 24.2174C22.2421 23.8541 22.0953 23.5991 22.0721 23.8851C22.0839 24.1293 22.1513 24.3677 22.2692 24.5819C22.3871 24.7962 22.5523 24.9808 22.7522 25.1216C23.0537 25.3071 23.386 25.3998 23.2933 25.7089C23.2005 26.0181 23.2933 25.8403 22.9532 26.1726C22.8091 26.2703 22.6965 26.4078 22.6293 26.5684C22.562 26.729 22.543 26.9056 22.5745 27.0769C22.5745 27.5483 22.474 27.5715 22.4044 27.9579C22.3349 28.3443 22.1571 28.012 22.0103 28.5762M30.002 25.6162C30.2494 25.6162 30.6281 25.9485 30.4812 26.0799C30.3688 26.1374 30.2426 26.162 30.1168 26.1511C29.9911 26.1402 29.8709 26.0941 29.7702 26.0181C29.5847 25.8712 29.8861 25.6317 30.002 25.6162ZM29.6851 25.3921C29.6078 25.3921 29.5383 25.2839 29.4765 25.0984C29.4582 25.0659 29.4518 25.0281 29.4582 24.9914C29.4646 24.9546 29.4834 24.9212 29.5115 24.8968C29.5396 24.8723 29.5753 24.8582 29.6125 24.8569C29.6498 24.8557 29.6863 24.8672 29.716 24.8897C29.8706 24.967 30.0716 25.1911 30.0716 25.3148C30.0716 25.4384 29.7702 25.423 29.6851 25.3921ZM26.4003 25.3921C26.2868 25.4467 26.1604 25.4691 26.035 25.4568C25.9097 25.4446 25.79 25.3981 25.6893 25.3225C25.5038 25.1757 25.8129 24.9361 25.9211 24.9284C26.1685 24.9284 26.5472 25.253 26.4003 25.3921ZM23.3551 26.9068C23.2469 27.0769 22.9687 28.3288 22.7832 28.182C22.5977 28.0352 22.8605 26.7291 22.9146 26.6363C23.2083 26.1031 23.842 26.1263 23.3551 26.9146M24.3599 31.7679C23.6509 31.767 22.9457 31.6655 22.2653 31.4665C22.2132 31.4237 22.1761 31.3654 22.1595 31.3001C22.1428 31.2348 22.1474 31.1658 22.1726 31.1033C22.3133 30.8372 22.5234 30.6142 22.7805 30.4577C23.0377 30.3013 23.3323 30.2173 23.6333 30.2146C24.8391 30.0986 26.4235 30.9874 26.6786 30.856C26.9336 30.7246 27.4515 30.0832 28.2244 30.0832C28.4634 30.0662 28.7016 30.1258 28.9045 30.2532C27.6095 31.2482 26.0239 31.7911 24.3908 31.7989M29.6388 29.6427C29.5587 29.6192 29.4811 29.5881 29.4069 29.5499C28.9973 29.349 29.0514 29.6736 28.8504 29.604C28.6495 29.5345 29.0745 29.063 28.4717 29.4572C27.8688 29.8513 28.0389 29.3954 27.7761 28.7307C27.6925 28.4178 27.7247 28.0853 27.8667 27.7943C28.0087 27.5032 28.251 27.2732 28.549 27.1464C28.9889 26.9898 29.4414 26.8708 29.9015 26.7909C30.7981 26.5668 30.9836 26.0181 31.1459 26.3581L31.2387 26.5359C31.3079 26.6863 31.3447 26.8495 31.3469 27.015C30.9698 28.0019 30.3876 28.8975 29.6388 29.6427ZM31.6869 25.8867C31.486 25.8326 30.6513 24.6733 31.3082 23.916C31.4242 23.7923 31.0918 23.4214 31.1846 23.4136C31.338 23.4044 31.4893 23.4534 31.6082 23.5508C31.7271 23.6482 31.8049 23.7869 31.8261 23.9392C31.8261 24.0783 31.8261 24.2251 31.8261 24.3642C31.8275 24.8834 31.7757 25.4013 31.6715 25.9099" fill="white" style="fill:white;fill-opacity:1;"/>
</g>
<defs>
<clipPath id="clip0_18792_43811">
<rect width="48" height="48" rx="24" fill="white" style="fill:white;fill-opacity:1;"/>
</clipPath>
</defs>
</svg>
