<svg width="48" height="48" viewBox="0 0 48 48" fill="none" xmlns="http://www.w3.org/2000/svg">
<g clip-path="url(#clip0_18792_43775)">
<path d="M48 0H0V48H48V0Z" fill="#8F1838" style="fill:#8F1838;fill:color(display-p3 0.5608 0.0941 0.2196);fill-opacity:1;"/>
<path d="M33.6504 17.3858L28.7447 22.0138C28.6433 22.0965 28.5647 22.2036 28.5161 22.325C28.4675 22.4465 28.4506 22.5783 28.467 22.708V35.7744C28.467 35.8488 28.496 35.9202 28.5478 35.9735C28.5997 36.0268 28.6703 36.0578 28.7447 36.0598H33.8123C33.8867 36.0578 33.9573 36.0268 34.0092 35.9735C34.061 35.9202 34.09 35.8488 34.09 35.7744V17.4861C34.09 17.3319 33.9666 17.0542 33.6504 17.3704" fill="white" style="fill:white;fill-opacity:1;"/>
<path d="M19.5273 23.4637L14.6293 28.0917C14.5281 28.1766 14.4492 28.2849 14.3995 28.4072C14.3497 28.5296 14.3307 28.6622 14.3439 28.7936V35.7819C14.3459 35.8569 14.3766 35.9284 14.4297 35.9815C14.4828 36.0346 14.5543 36.0653 14.6293 36.0673H19.6893C19.7636 36.0653 19.8342 36.0343 19.8861 35.981C19.938 35.9277 19.967 35.8562 19.967 35.7819V23.5794C19.967 23.4251 19.8435 23.1397 19.5273 23.4637Z" fill="white" style="fill:white;fill-opacity:1;"/>
<path d="M35.8722 11.732C35.8803 11.7152 35.8846 11.6967 35.8846 11.678C35.8846 11.6593 35.8803 11.6408 35.8722 11.624C35.8451 11.6035 35.8132 11.5903 35.7796 11.5854H35.7179L31.9615 12.4339H31.8921H31.8227C31.7967 12.4623 31.7822 12.4995 31.7822 12.538C31.7822 12.5766 31.7967 12.6137 31.8227 12.6422V12.6807L32.6788 13.5369L24.1942 22.0216L20.2681 18.0878C20.245 18.0696 20.2165 18.0598 20.1871 18.0598C20.1578 18.0598 20.1292 18.0696 20.1061 18.0878L19.0417 19.1599L12.7399 25.454C12.7218 25.4771 12.7119 25.5056 12.7119 25.535C12.7119 25.5644 12.7218 25.5929 12.7399 25.616L13.7966 26.7421C13.8061 26.7534 13.8178 26.7626 13.8312 26.7688C13.8445 26.7751 13.859 26.7783 13.8738 26.7783C13.8885 26.7783 13.903 26.7751 13.9164 26.7688C13.9297 26.7626 13.9415 26.7534 13.9509 26.7421L20.1524 20.5715L23.0063 23.4254L24.0708 24.4898C24.0809 24.5013 24.0934 24.5105 24.1073 24.5168C24.1213 24.5231 24.1365 24.5264 24.1518 24.5264C24.1671 24.5264 24.1822 24.5231 24.1962 24.5168C24.2102 24.5105 24.2226 24.5013 24.2328 24.4898L33.8821 14.8405L34.8077 15.7121C34.8349 15.7376 34.8707 15.7517 34.908 15.7517C34.9452 15.7517 34.9811 15.7376 35.0083 15.7121C35.0173 15.6819 35.0173 15.6497 35.0083 15.6195L35.8336 11.7629L35.8722 11.732Z" fill="white" style="fill:white;fill-opacity:1;"/>
<path d="M26.6164 24.2817L24.2407 26.6728C24.2207 26.6912 24.1946 26.7015 24.1674 26.7015C24.1402 26.7015 24.1141 26.6912 24.0941 26.6728L21.9421 24.4822C21.5487 24.0889 21.4639 24.4051 21.4639 24.5594V35.8208C21.4638 35.8952 21.4928 35.9666 21.5447 36.0199C21.5966 36.0732 21.6672 36.1042 21.7415 36.1062H26.8092C26.8835 36.1042 26.9542 36.0732 27.006 36.0199C27.0579 35.9666 27.0869 35.8952 27.0869 35.8208V24.3665C27.0869 24.2123 26.9635 23.9346 26.6164 24.2817Z" fill="white" style="fill:white;fill-opacity:1;"/>
</g>
<defs>
<clipPath id="clip0_18792_43775">
<rect width="48" height="48" rx="24" fill="white" style="fill:white;fill-opacity:1;"/>
</clipPath>
</defs>
</svg>
