<svg width="48" height="48" viewBox="0 0 48 48" fill="none" xmlns="http://www.w3.org/2000/svg">
<g clip-path="url(#clip0_18792_43765)">
<path d="M48 0H0V48H48V0Z" fill="#FDB714" style="fill:#FDB714;fill:color(display-p3 0.9922 0.7176 0.0784);fill-opacity:1;"/>
<path d="M23.737 16.8643C22.3395 16.8643 20.9733 17.2787 19.8113 18.0551C18.6493 18.8315 17.7436 19.9351 17.2088 21.2263C16.674 22.5174 16.534 23.9382 16.8067 25.3089C17.0793 26.6796 17.7523 27.9386 18.7405 28.9269C19.7287 29.9151 20.9878 30.588 22.3585 30.8607C23.7292 31.1333 25.1499 30.9934 26.4411 30.4586C27.7323 29.9238 28.8358 29.0181 29.6123 27.8561C30.3887 26.6941 30.8031 25.3279 30.8031 23.9304C30.8031 22.0563 30.0587 20.259 28.7335 18.9339C27.4084 17.6087 25.6111 16.8643 23.737 16.8643ZM23.2107 19.6582C23.2204 19.5247 23.2799 19.3997 23.3773 19.308C23.4748 19.2162 23.6032 19.1645 23.737 19.1629C23.8703 19.1662 23.9977 19.2186 24.0948 19.3099C24.1919 19.4013 24.2519 19.5253 24.2633 19.6582V22.0497C24.2519 22.1825 24.1919 22.3065 24.0948 22.3979C23.9977 22.4893 23.8703 22.5417 23.737 22.545C23.6037 22.5417 23.4763 22.4893 23.3792 22.3979C23.2821 22.3065 23.2221 22.1825 23.2107 22.0497V19.6582ZM23.737 27.5524C22.8558 27.5549 22.0031 27.2408 21.3341 26.6673C20.6651 26.0938 20.2243 25.2991 20.0921 24.4279C19.9599 23.5567 20.145 22.6669 20.6137 21.9208C21.0824 21.1746 21.8035 20.6216 22.6457 20.3625V21.7324C22.1607 21.977 21.7723 22.378 21.5434 22.8707C21.3144 23.3633 21.2583 23.9188 21.384 24.4472C21.5097 24.9757 21.81 25.4464 22.2363 25.7831C22.6625 26.1199 23.1899 26.3031 23.7331 26.3031C24.2764 26.3031 24.8037 26.1199 25.23 25.7831C25.6563 25.4464 25.9566 24.9757 26.0823 24.4472C26.208 23.9188 26.1519 23.3633 25.9229 22.8707C25.694 22.378 25.3056 21.977 24.8205 21.7324V20.3625C25.6621 20.6214 26.3828 21.1738 26.8515 21.9191C27.3203 22.6645 27.5059 23.5533 27.3747 24.424C27.2435 25.2947 26.8042 26.0893 26.1366 26.6635C25.469 27.2376 24.6175 27.553 23.737 27.5524Z" fill="white" style="fill:white;fill-opacity:1;"/>
<path d="M15.6188 23.8685C15.6173 23.7216 15.5609 23.5805 15.4606 23.4731C15.3603 23.3657 15.2235 23.2997 15.077 23.2881H11.9812C11.8354 23.3014 11.6995 23.3679 11.5996 23.4749C11.4997 23.582 11.4427 23.7221 11.4395 23.8685C11.4409 24.0155 11.4974 24.1565 11.5976 24.264C11.6979 24.3714 11.8347 24.4374 11.9812 24.449H15.077C15.2241 24.4392 15.362 24.3737 15.4626 24.2659C15.5633 24.1581 15.6191 24.016 15.6188 23.8685Z" fill="white" style="fill:white;fill-opacity:1;"/>
<path d="M36.0354 23.8685C36.0322 23.7221 35.9752 23.582 35.8752 23.4749C35.7753 23.3679 35.6395 23.3014 35.4936 23.2881H32.3978C32.2439 23.2881 32.0963 23.3492 31.9874 23.4581C31.8785 23.567 31.8174 23.7146 31.8174 23.8685C31.8174 24.0225 31.8785 24.1701 31.9874 24.279C32.0963 24.3878 32.2439 24.449 32.3978 24.449H35.4936C35.6401 24.4374 35.7769 24.3714 35.8772 24.264C35.9775 24.1565 36.0339 24.0155 36.0354 23.8685Z" fill="white" style="fill:white;fill-opacity:1;"/>
<path d="M23.7367 36.1666C23.8836 36.1651 24.0247 36.1087 24.1321 36.0084C24.2396 35.9082 24.3056 35.7713 24.3172 35.6248V32.5291C24.3039 32.3832 24.2374 32.2474 24.1303 32.1474C24.0232 32.0475 23.8831 31.9905 23.7367 31.9873C23.5898 31.9888 23.4487 32.0452 23.3413 32.1455C23.2339 32.2457 23.1678 32.3826 23.1562 32.5291V35.6248C23.1661 35.772 23.2316 35.9099 23.3394 36.0105C23.4472 36.1111 23.5892 36.1669 23.7367 36.1666Z" fill="white" style="fill:white;fill-opacity:1;"/>
<path d="M34.4097 29.9751C34.4832 29.8467 34.5049 29.6951 34.4703 29.5512C34.4358 29.4074 34.3477 29.2822 34.2239 29.2011L31.5384 27.6532C31.406 27.5904 31.2548 27.58 31.1151 27.624C30.9754 27.668 30.8575 27.7632 30.785 27.8905C30.7125 28.0178 30.6909 28.1678 30.7244 28.3104C30.7579 28.453 30.8441 28.5776 30.9656 28.6594L33.6512 30.2073C33.7867 30.2722 33.9417 30.2836 34.0852 30.2391C34.2288 30.1946 34.3502 30.0975 34.4252 29.9673" fill="white" style="fill:white;fill-opacity:1;"/>
<path d="M17.631 34.5412C17.7585 34.6155 17.9094 34.6384 18.0532 34.6053C18.1969 34.5723 18.3227 34.4857 18.405 34.3632L19.9528 31.6777C20.0298 31.5442 20.0506 31.3857 20.0107 31.2369C19.9708 31.0882 19.8734 30.9613 19.74 30.8844C19.6066 30.8074 19.4481 30.7866 19.2993 30.8265C19.1505 30.8664 19.0237 30.9638 18.9467 31.0972L17.3988 33.7828C17.332 33.918 17.3196 34.0736 17.3643 34.2177C17.4089 34.3617 17.5072 34.4831 17.6387 34.5567" fill="white" style="fill:white;fill-opacity:1;"/>
<path d="M29.8673 34.5335C29.9975 34.4586 30.0941 34.3367 30.1373 34.1927C30.1805 34.0488 30.167 33.8938 30.0995 33.7596L28.5516 31.074C28.4671 30.9545 28.342 30.8697 28.1996 30.8355C28.0572 30.8013 27.9072 30.8201 27.7777 30.8883C27.6502 30.9657 27.5564 31.0882 27.5148 31.2315C27.4732 31.3748 27.4869 31.5285 27.5532 31.6622L29.1011 34.3401C29.1845 34.461 29.3097 34.5468 29.4525 34.5811C29.5954 34.6154 29.7458 34.5957 29.875 34.5258" fill="white" style="fill:white;fill-opacity:1;"/>
<path d="M13.0722 30.0059C13.1484 30.1348 13.2709 30.2298 13.4147 30.2715C13.5585 30.3132 13.7128 30.2985 13.8462 30.2304L16.5317 28.6825C16.6652 28.6055 16.7625 28.4787 16.8025 28.3299C16.8424 28.1811 16.8216 28.0226 16.7446 27.8892C16.6676 27.7558 16.5408 27.6584 16.392 27.6185C16.2432 27.5786 16.0847 27.5994 15.9513 27.6764L13.2734 29.2242C13.1552 29.3098 13.0715 29.4349 13.0374 29.5768C13.0033 29.7188 13.0212 29.8682 13.0877 29.9982" fill="white" style="fill:white;fill-opacity:1;"/>
<path d="M23.7367 15.7575C23.8831 15.7543 24.0232 15.6973 24.1303 15.5974C24.2374 15.4975 24.3039 15.3616 24.3172 15.2158V12.12C24.3172 11.9661 24.256 11.8184 24.1472 11.7096C24.0383 11.6007 23.8907 11.5396 23.7367 11.5396C23.5828 11.5396 23.4351 11.6007 23.3263 11.7096C23.2174 11.8184 23.1562 11.9661 23.1562 12.12V15.2158C23.1678 15.3623 23.2339 15.4991 23.3413 15.5994C23.4487 15.6996 23.5898 15.7561 23.7367 15.7575Z" fill="white" style="fill:white;fill-opacity:1;"/>
<path d="M16.6948 19.8364C16.7665 19.7076 16.7872 19.5566 16.7528 19.4132C16.7184 19.2699 16.6314 19.1447 16.5091 19.0625L13.8235 17.5146C13.6912 17.4518 13.54 17.4413 13.4003 17.4853C13.2605 17.5293 13.1426 17.6245 13.0701 17.7518C12.9977 17.8791 12.976 18.0291 13.0095 18.1717C13.043 18.3143 13.1292 18.439 13.2508 18.5207L15.9364 20.0686C16.0719 20.1335 16.2269 20.1449 16.3704 20.1004C16.5139 20.0559 16.6353 19.9589 16.7103 19.8287" fill="white" style="fill:white;fill-opacity:1;"/>
<path d="M27.7692 16.8259C27.8962 16.902 28.0478 16.926 28.1921 16.8928C28.3364 16.8596 28.4622 16.7719 28.5432 16.6479L30.0911 13.9623C30.1292 13.8963 30.1539 13.8233 30.1638 13.7477C30.1738 13.6721 30.1687 13.5953 30.1489 13.5216C30.1292 13.4479 30.0951 13.3789 30.0487 13.3184C30.0022 13.2579 29.9443 13.2071 29.8782 13.169C29.8122 13.1309 29.7392 13.1062 29.6636 13.0963C29.588 13.0863 29.5112 13.0914 29.4375 13.1111C29.3638 13.1309 29.2948 13.165 29.2343 13.2114C29.1738 13.2579 29.1231 13.3158 29.0849 13.3819L27.537 16.0675C27.4721 16.2029 27.4608 16.358 27.5052 16.5015C27.5497 16.645 27.6468 16.7664 27.777 16.8414" fill="white" style="fill:white;fill-opacity:1;"/>
<path d="M19.666 16.8334C19.7962 16.7585 19.8928 16.6366 19.936 16.4927C19.9792 16.3487 19.9656 16.1937 19.8982 16.0595L18.3503 13.3817C18.2686 13.2601 18.1439 13.1739 18.0013 13.1404C17.8587 13.1069 17.7087 13.1285 17.5814 13.201C17.4541 13.2735 17.3589 13.3914 17.3149 13.5311C17.2709 13.6708 17.2813 13.822 17.3442 13.9544L18.8921 16.6322C18.9755 16.7532 19.1012 16.8386 19.2444 16.8715C19.3877 16.9045 19.5381 16.8826 19.666 16.8102" fill="white" style="fill:white;fill-opacity:1;"/>
<path d="M30.7727 19.8286C30.849 19.9574 30.9709 20.0529 31.1143 20.0959C31.2577 20.1389 31.4121 20.1264 31.5467 20.0608L34.2245 18.5129C34.3461 18.4312 34.4323 18.3065 34.4658 18.1639C34.4993 18.0213 34.4776 17.8713 34.4052 17.744C34.3327 17.6167 34.2148 17.5215 34.0751 17.4775C33.9353 17.4335 33.7841 17.4439 33.6518 17.5068L30.9662 19.0546C30.8452 19.1381 30.7598 19.2638 30.7269 19.407C30.6939 19.5503 30.7158 19.7007 30.7882 19.8286" fill="white" style="fill:white;fill-opacity:1;"/>
</g>
<defs>
<clipPath id="clip0_18792_43765">
<rect width="48" height="48" rx="24" fill="white" style="fill:white;fill-opacity:1;"/>
</clipPath>
</defs>
</svg>
