<svg width="48" height="48" viewBox="0 0 48 48" fill="none" xmlns="http://www.w3.org/2000/svg">
<g clip-path="url(#clip0_18792_43757)">
<path d="M48 0H0V48H48V0Z" fill="#EF412A" style="fill:#EF412A;fill:color(display-p3 0.9373 0.2549 0.1647);fill-opacity:1;"/>
<path d="M35.0117 11.25H29.0194C28.9989 11.25 28.9791 11.2582 28.9646 11.2727C28.95 11.2873 28.9418 11.307 28.9418 11.3276V13.3147C28.9418 13.3353 28.95 13.355 28.9646 13.3696C28.9791 13.3841 28.9989 13.3923 29.0194 13.3923H31.4101L28.7555 16.0236C27.8042 15.283 26.6949 14.7716 25.5139 14.5291C24.3329 14.2865 23.1119 14.3194 21.9457 14.625C20.7794 14.9307 19.6993 15.501 18.7891 16.2917C17.8789 17.0823 17.1631 18.072 16.6973 19.1841C16.2314 20.2961 16.0281 21.5005 16.1031 22.7038C16.178 23.9071 16.5292 25.077 17.1294 26.1226C17.7296 27.1683 18.5627 28.0615 19.564 28.7331C20.5653 29.4047 21.7079 29.8366 22.903 29.9951V32.3237H20.5744C20.5539 32.3237 20.5341 32.3319 20.5196 32.3465C20.505 32.361 20.4968 32.3808 20.4968 32.4014V34.5359C20.4968 34.5565 20.505 34.5762 20.5196 34.5908C20.5341 34.6053 20.5539 34.6135 20.5744 34.6135H22.903V36.8723C22.905 36.8915 22.914 36.9093 22.9283 36.9222C22.9427 36.9351 22.9613 36.9422 22.9806 36.9421H25.1152C25.1345 36.9422 25.1531 36.9351 25.1675 36.9222C25.1819 36.9093 25.1909 36.8915 25.1928 36.8723V34.6135H27.5214C27.542 34.6135 27.5617 34.6053 27.5763 34.5908C27.5908 34.5762 27.599 34.5565 27.599 34.5359V32.4014C27.599 32.3808 27.5908 32.361 27.5763 32.3465C27.5617 32.3319 27.542 32.3237 27.5214 32.3237H25.1928V29.9951C26.5041 29.7791 27.7391 29.2335 28.7819 28.4096C29.8247 27.5857 30.6412 26.5105 31.1548 25.2847C31.6683 24.059 31.8622 22.7228 31.7182 21.4017C31.5741 20.0805 31.0969 18.8175 30.3312 17.7312L32.947 15.1232V17.3509C32.947 17.3715 32.9552 17.3912 32.9697 17.4058C32.9843 17.4203 33.004 17.4285 33.0246 17.4285H35.0117C35.0323 17.4285 35.052 17.4203 35.0666 17.4058C35.0811 17.3912 35.0893 17.3715 35.0893 17.3509V11.3664C35.0906 11.3559 35.0894 11.3453 35.0859 11.3353C35.0825 11.3253 35.0768 11.3163 35.0693 11.3088C35.0619 11.3013 35.0528 11.2956 35.0428 11.2922C35.0328 11.2887 35.0222 11.2876 35.0117 11.2888M23.9121 27.9926C22.7696 27.991 21.6532 27.6506 20.7042 27.0145C19.7552 26.3783 19.0163 25.4749 18.5808 24.4186C18.1454 23.3624 18.033 22.2007 18.258 21.0806C18.483 19.9604 19.0351 18.9322 19.8446 18.126C20.6541 17.3197 21.6846 16.7717 22.8056 16.5513C23.9266 16.3308 25.0879 16.4479 26.1424 16.8876C27.1969 17.3273 28.0972 18.0699 28.7296 19.0214C29.3619 19.973 29.6978 21.0907 29.6948 22.2332C29.6886 23.7628 29.0766 25.2277 27.9928 26.3071C26.909 27.3865 25.4417 27.9926 23.9121 27.9926Z" fill="white" style="fill:white;fill-opacity:1;"/>
<path d="M27.4433 19.8427H20.4576C20.439 19.8427 20.4213 19.85 20.4082 19.8631C20.3951 19.8762 20.3877 19.894 20.3877 19.9125V21.6124C20.3877 21.6309 20.3951 21.6487 20.4082 21.6618C20.4213 21.6749 20.439 21.6823 20.4576 21.6823H27.4433C27.4531 21.6833 27.4631 21.6824 27.4725 21.6793C27.4818 21.6763 27.4905 21.6714 27.4978 21.6648C27.5052 21.6582 27.511 21.6501 27.515 21.641C27.519 21.632 27.521 21.6223 27.5209 21.6124V19.9048C27.521 19.8949 27.519 19.8851 27.515 19.8761C27.511 19.8671 27.5052 19.859 27.4978 19.8524C27.4905 19.8458 27.4818 19.8408 27.4725 19.8378C27.4631 19.8348 27.4531 19.8338 27.4433 19.8349" fill="white" style="fill:white;fill-opacity:1;"/>
<path d="M27.4433 22.8774H20.4576C20.439 22.8774 20.4213 22.8847 20.4082 22.8978C20.3951 22.9109 20.3877 22.9287 20.3877 22.9472V24.6393C20.3877 24.6579 20.3951 24.6756 20.4082 24.6888C20.4213 24.7019 20.439 24.7092 20.4576 24.7092H27.4433C27.4531 24.7103 27.4631 24.7093 27.4725 24.7063C27.4818 24.7033 27.4905 24.6983 27.4978 24.6917C27.5052 24.6851 27.511 24.677 27.515 24.668C27.519 24.659 27.521 24.6492 27.5209 24.6393V22.9472C27.521 22.9374 27.519 22.9276 27.515 22.9186C27.511 22.9096 27.5052 22.9015 27.4978 22.8949C27.4905 22.8883 27.4818 22.8833 27.4725 22.8803C27.4631 22.8773 27.4531 22.8763 27.4433 22.8774Z" fill="white" style="fill:white;fill-opacity:1;"/>
</g>
<defs>
<clipPath id="clip0_18792_43757">
<rect width="48" height="48" rx="24" fill="white" style="fill:white;fill-opacity:1;"/>
</clipPath>
</defs>
</svg>
