<svg width="56" height="56" viewBox="0 0 56 56" fill="none" xmlns="http://www.w3.org/2000/svg">
<g clip-path="url(#clip0_18792_43839)">
<path d="M56 0H0V56H56V0Z" fill="#1A3668" style="fill:#1A3668;fill:color(display-p3 0.1020 0.2118 0.4078);fill-opacity:1;"/>
<path d="M42.0396 26.2919C42.0386 24.3959 41.3028 22.5742 39.9867 21.2094C38.6707 19.8446 36.8769 19.043 34.9822 18.973C34.4771 17.5444 33.5414 16.3074 32.3042 15.4326C31.0669 14.5577 29.5888 14.0879 28.0734 14.0879C26.5581 14.0879 25.08 14.5577 23.8427 15.4326C22.6055 16.3074 21.6698 17.5444 21.1647 18.973C19.662 19.0264 18.2122 19.5413 17.0124 20.4477C15.8127 21.3542 14.9212 22.6081 14.4593 24.0391C13.9974 25.4701 13.9875 27.0086 14.4309 28.4454C14.8743 29.8822 15.7495 31.1476 16.9375 32.0695C16.7444 32.7312 16.6473 33.4172 16.649 34.1065C16.6507 35.4394 17.016 36.7467 17.7054 37.8875C18.3949 39.0283 19.3825 39.9594 20.5618 40.5806C21.7412 41.2018 23.0677 41.4895 24.3984 41.4129C25.7292 41.3362 27.0138 40.898 28.114 40.1454C29.3143 40.9559 30.7308 41.3862 32.179 41.3803C33.3117 41.3816 34.4292 41.1199 35.4436 40.616C36.4581 40.1121 37.3417 39.3796 38.0249 38.4762C38.7081 37.5728 39.1724 36.5231 39.381 35.4098C39.5897 34.2965 39.5372 33.15 39.2275 32.0604C40.1041 31.3762 40.8131 30.5009 41.3005 29.5013C41.7878 28.5016 42.0406 27.404 42.0396 26.2919ZM33.9276 21.4157C33.9239 22.8153 33.4193 24.1674 32.505 25.2271C31.5907 26.2869 30.3272 26.9844 28.9432 27.1932C28.8935 26.8953 28.8664 26.594 28.8621 26.2919C28.8643 24.8904 29.3696 23.5363 30.286 22.4759C31.2025 21.4156 32.4691 20.7195 33.8555 20.5143C33.903 20.8124 33.9271 21.1138 33.9276 21.4157ZM28.105 38.2436C27.5474 37.7035 27.1031 37.0577 26.798 36.3438C26.4929 35.63 26.3332 34.8625 26.3282 34.0863C26.3231 33.31 26.4729 32.5405 26.7687 31.8228C27.0645 31.1051 27.5004 30.4535 28.0509 29.9062C28.6085 30.4463 29.0528 31.0922 29.3579 31.806C29.663 32.5198 29.8228 33.2873 29.8278 34.0636C29.8328 34.8398 29.683 35.6093 29.3872 36.327C29.0914 37.0448 28.6555 37.6963 28.105 38.2436ZM22.3004 20.5143C23.6868 20.7195 24.9535 21.4156 25.8699 22.4759C26.7863 23.5363 27.2916 24.8904 27.2938 26.2919C27.2895 26.594 27.2624 26.8953 27.2127 27.1932C26.4493 27.0822 25.7156 26.8207 25.0542 26.4238C24.3928 26.0268 23.8169 25.5024 23.3598 24.881C22.9028 24.2596 22.5738 23.5536 22.3919 22.804C22.21 22.0544 22.1789 21.2761 22.3004 20.5143ZM26.6629 28.9148C26.1764 29.8845 25.4299 30.6998 24.5067 31.2697C23.5835 31.8395 22.52 32.1414 21.4351 32.1416C20.4935 32.1469 19.565 31.921 18.7311 31.4836C19.2171 30.5128 19.9633 29.6962 20.8864 29.1248C21.8095 28.5535 22.8732 28.2498 23.9588 28.2478C24.9014 28.2441 25.8302 28.4732 26.6629 28.9148ZM29.466 28.8697C30.1574 28.5071 30.9145 28.2868 31.6925 28.2218C32.4705 28.1568 33.2536 28.2484 33.9956 28.4912C34.7375 28.7341 35.4233 29.1232 36.0123 29.6356C36.6013 30.148 37.0816 30.7733 37.4248 31.4746C36.7334 31.8372 35.9764 32.0575 35.1984 32.1225C34.4204 32.1875 33.6372 32.0959 32.8953 31.853C32.1533 31.6102 31.4675 31.2211 30.8785 30.7086C30.2895 30.1962 29.8092 29.5709 29.466 28.8697ZM28.078 15.557C29.2257 15.5491 30.3505 15.879 31.3121 16.5056C32.2737 17.1323 33.0297 18.028 33.486 19.0812C32.32 19.2797 31.2193 19.7571 30.2777 20.4727C29.336 21.1884 28.5814 22.121 28.078 23.1913C27.5776 22.1275 26.8295 21.1991 25.8964 20.484C24.9633 19.7688 23.8723 19.2878 22.715 19.0812C23.1682 18.0351 23.9173 17.1442 24.8701 16.518C25.8229 15.8919 26.9379 15.5579 28.078 15.557ZM15.5855 26.2919C15.5882 24.8492 16.1231 23.4583 17.0877 22.3855C18.0523 21.3127 19.3789 20.6336 20.8132 20.4783C20.7709 20.7769 20.7498 21.0781 20.7501 21.3796C20.7491 22.3986 20.9621 23.4065 21.375 24.338C21.788 25.2696 22.3919 26.1041 23.1477 26.7876C21.974 26.9245 20.8504 27.3415 19.8716 28.0035C18.8928 28.6654 18.0874 29.553 17.5233 30.5913C16.9143 30.045 16.427 29.3767 16.0931 28.6297C15.7592 27.8828 15.5863 27.074 15.5855 26.2558M18.1272 34.0704C18.1271 33.6616 18.1694 33.2538 18.2534 32.8536C19.2449 33.3352 20.3329 33.5849 21.4351 33.5837C22.673 33.5869 23.8916 33.2768 24.9774 32.6824C24.7601 33.8339 24.8237 35.0209 25.1626 36.1428C25.5015 37.2646 26.1058 38.2882 26.9242 39.1269C26.0362 39.6481 25.0262 39.9253 23.9966 39.9303C22.9669 39.9354 21.9542 39.6682 21.0611 39.1557C20.168 38.6433 19.4263 37.9039 18.9111 37.0124C18.3958 36.1209 18.1254 35.1091 18.1272 34.0794M38.0287 34.0254C38.0263 35.576 37.4093 37.0625 36.3127 38.1591C35.2162 39.2556 33.7297 39.8726 32.179 39.875C31.167 39.8771 30.1723 39.6128 29.2948 39.1089C30.5848 37.7521 31.3044 35.9516 31.3047 34.0794C31.3061 33.6074 31.2609 33.1364 31.1695 32.6733C32.2543 33.2704 33.4736 33.5806 34.7118 33.5747C35.821 33.5777 36.916 33.3248 37.9115 32.8356C37.9916 33.221 38.0308 33.6137 38.0287 34.0073M33.0533 26.7335C33.8004 26.0456 34.3956 25.2093 34.8007 24.278C35.2058 23.3467 35.4119 22.3411 35.4058 21.3255C35.402 21.0241 35.3809 20.7232 35.3427 20.4242C36.4638 20.5436 37.5264 20.9848 38.4022 21.6948C39.278 22.4047 39.9296 23.353 40.2784 24.4251C40.6272 25.4972 40.6583 26.6473 40.3678 27.7367C40.0774 28.826 39.4779 29.8081 38.6416 30.5642C38.0865 29.5228 37.289 28.6303 36.3163 27.962C35.3437 27.2937 34.2245 26.8693 33.0533 26.7245" fill="white" style="fill:white;fill-opacity:1;"/>
</g>
<defs>
<clipPath id="clip0_18792_43839">
<rect width="56" height="56" rx="28" fill="white" style="fill:white;fill-opacity:1;"/>
</clipPath>
</defs>
</svg>
