<svg width="48" height="48" viewBox="0 0 48 48" fill="none" xmlns="http://www.w3.org/2000/svg">
<g clip-path="url(#clip0_18792_43742)">
<path d="M48 0H0V48H48V0Z" fill="#2D9A47" style="fill:#2D9A47;fill:color(display-p3 0.1765 0.6039 0.2784);fill-opacity:1;"/>
<path d="M40.3131 24.0188C40.3408 23.7115 40.3052 23.4018 40.2088 23.1087C40.1123 22.8156 39.957 22.5453 39.7522 22.3144C39.5475 22.0835 39.2977 21.897 39.0183 21.7661C38.7388 21.6353 38.4355 21.563 38.1271 21.5537C37.3848 21.7201 36.7192 22.1293 36.2356 22.7165C35.8093 22.2746 35.0651 21.5537 34.4062 21.5537C34.0959 21.5635 33.7908 21.6354 33.5088 21.765C33.2267 21.8946 32.9735 22.0794 32.764 22.3084C32.5545 22.5374 32.3929 22.806 32.2889 23.0985C32.1848 23.3909 32.1404 23.7012 32.1581 24.0111C32.1571 24.6599 32.4104 25.2832 32.8635 25.7475L36.2434 29.1351L39.6155 25.7475C40.0646 25.2844 40.315 24.664 40.3131 24.0188Z" fill="white" style="fill:white;fill-opacity:1;"/>
<path d="M25.9255 34.6702H25.8634C25.7394 34.6618 25.6217 34.6123 25.529 34.5294C25.4363 34.4466 25.374 34.3351 25.3518 34.2128L23.6309 24.2128L21.034 29.0345C20.9774 29.1359 20.8905 29.2171 20.7855 29.2668C20.6805 29.3165 20.5626 29.3323 20.4483 29.3118C20.334 29.2913 20.2288 29.2357 20.1476 29.1526C20.0664 29.0696 20.0131 28.9632 19.9952 28.8485L18.8945 21.0965L16.8712 25.6392C16.8269 25.7358 16.756 25.8177 16.6667 25.8754C16.5775 25.9331 16.4736 25.9641 16.3673 25.9647H8.53786C8.45957 25.974 8.38021 25.9666 8.30499 25.943C8.22978 25.9194 8.16042 25.8801 8.10149 25.8277C8.04255 25.7753 7.99537 25.7111 7.96307 25.6392C7.93076 25.5673 7.91406 25.4893 7.91406 25.4105C7.91406 25.3316 7.93076 25.2537 7.96307 25.1818C7.99537 25.1099 8.04255 25.0456 8.10149 24.9932C8.16042 24.9409 8.22978 24.9016 8.30499 24.878C8.38021 24.8544 8.45957 24.8469 8.53786 24.8562H16.0262L18.6852 18.8872C18.7352 18.7784 18.8184 18.6883 18.9229 18.6298C19.0273 18.5713 19.1477 18.5474 19.2666 18.5616C19.3869 18.5763 19.4988 18.6309 19.5845 18.7166C19.6702 18.8023 19.7247 18.9142 19.7394 19.0345L20.879 26.988L23.4448 22.2361C23.4989 22.1329 23.5844 22.0495 23.6888 21.998C23.7933 21.9464 23.9114 21.9294 24.0262 21.9492C24.1401 21.9696 24.2449 22.0244 24.3267 22.1061C24.4085 22.1879 24.4632 22.2928 24.4836 22.4066L26.0728 31.7089L31.8634 12.4531C31.897 12.3472 31.9615 12.2538 32.0485 12.1848C32.1355 12.1157 32.2411 12.0742 32.3518 12.0655C32.4635 12.0526 32.5764 12.0757 32.674 12.1315C32.7717 12.1872 32.8489 12.2728 32.8945 12.3756L35.941 18.6857C35.9775 18.7533 35.9997 18.8277 36.0062 18.9043C36.0126 18.9809 36.0032 19.058 35.9784 19.1308C35.9537 19.2036 35.9142 19.2705 35.8624 19.3273C35.8106 19.3841 35.7476 19.4296 35.6774 19.4609C35.6118 19.4923 35.5406 19.5104 35.468 19.5141C35.3954 19.5179 35.3227 19.5072 35.2542 19.4827C35.1857 19.4582 35.1228 19.4203 35.069 19.3713C35.0153 19.3224 34.9717 19.2632 34.941 19.1973L32.5069 14.1663L26.4448 34.3213C26.403 34.4247 26.3312 34.5132 26.2386 34.5754C26.146 34.6375 26.037 34.6706 25.9255 34.6702Z" fill="white" style="fill:white;fill-opacity:1;"/>
</g>
<defs>
<clipPath id="clip0_18792_43742">
<rect width="48" height="48" rx="24" fill="white" style="fill:white;fill-opacity:1;"/>
</clipPath>
</defs>
</svg>
