<svg width="48" height="48" viewBox="0 0 48 48" fill="none" xmlns="http://www.w3.org/2000/svg">
<g clip-path="url(#clip0_18792_43782)">
<path d="M48 0H0V48H48V0Z" fill="#F36E24" style="fill:#F36E24;fill:color(display-p3 0.9529 0.4314 0.1412);fill-opacity:1;"/>
<path d="M35.916 25.2507L30.1808 21.9369V15.3247C30.1818 15.2557 30.1643 15.1877 30.1302 15.1276C30.0961 15.0676 30.0466 15.0178 29.9868 14.9833L24.0576 11.5608C23.9986 11.5267 23.9317 11.5088 23.8636 11.5088C23.7955 11.5088 23.7286 11.5267 23.6696 11.5608L17.7404 14.9833C17.6816 15.0189 17.633 15.069 17.599 15.1288C17.5651 15.1885 17.547 15.256 17.5464 15.3247V21.9369L11.8112 25.2507C11.7526 25.2845 11.7038 25.3331 11.6698 25.3917C11.6357 25.4502 11.6176 25.5167 11.6172 25.5844V32.4293C11.6178 32.4981 11.6359 32.5655 11.6698 32.6253C11.7038 32.685 11.7525 32.7351 11.8112 32.7708L17.7404 36.1933C17.8003 36.2288 17.8686 36.2475 17.9383 36.2475C18.0079 36.2475 18.0763 36.2288 18.1362 36.1933L23.8636 32.8872L29.5988 36.1933C29.6578 36.2275 29.7245 36.2462 29.7928 36.2476C29.8607 36.2441 29.927 36.2256 29.9868 36.1933L35.916 32.7708C35.9747 32.7351 36.0234 32.685 36.0573 32.6253C36.0913 32.5655 36.1094 32.4981 36.11 32.4293V25.5844C36.1096 25.5167 36.0915 25.4502 36.0574 25.3917C36.0234 25.3331 35.9746 25.2845 35.916 25.2507ZM23.4988 31.7541L18.7415 29.0069L23.4988 26.2673V31.7541ZM29.0322 22.1619L24.2749 24.9092V19.4224L29.0322 22.1619ZM23.4988 24.9092L18.7415 22.1619L23.4988 19.4224V24.9092ZM24.6707 25.5844L29.816 22.6198L34.9614 25.5844L29.816 28.5567L24.6707 25.5844ZM29.4203 21.4867L24.6707 18.7394L29.4203 15.9999V21.4867ZM23.103 18.7394L18.3302 21.4712V16.0387L23.103 18.7394ZM17.5697 35.1766L12.4243 32.2043V26.2673L17.5697 29.2319V35.1766ZM18.3457 35.1766V29.6898L23.0953 32.4293L18.3457 35.1766ZM35.3417 32.2043L30.1963 35.1766V29.2319L35.3417 26.2673V32.2043Z" fill="white" style="fill:white;fill-opacity:1;"/>
</g>
<defs>
<clipPath id="clip0_18792_43782">
<rect width="48" height="48" rx="24" fill="white" style="fill:white;fill-opacity:1;"/>
</clipPath>
</defs>
</svg>
