<svg width="48" height="48" viewBox="0 0 48 48" fill="none" xmlns="http://www.w3.org/2000/svg">
<g clip-path="url(#clip0_18792_43825)">
<path d="M48 0H0V48H48V0Z" fill="#40AE49" style="fill:#40AE49;fill:color(display-p3 0.2510 0.6824 0.2863);fill-opacity:1;"/>
<path d="M19.8506 25.5352H18.4354C18.3756 25.5352 18.3271 25.5836 18.3271 25.6434V29.1543C18.3271 29.2141 18.3756 29.2626 18.4354 29.2626H19.8506C19.9104 29.2626 19.9589 29.2141 19.9589 29.1543V25.6434C19.9589 25.5836 19.9104 25.5352 19.8506 25.5352Z" fill="white" style="fill:white;fill-opacity:1;"/>
<path d="M35.4639 30.7627H12.0477C12.0183 30.7647 11.9908 30.7778 11.9707 30.7993C11.9505 30.8208 11.9394 30.8492 11.9395 30.8787V32.3093C11.9394 32.3232 11.9422 32.337 11.9478 32.3497C11.9533 32.3624 11.9614 32.3739 11.9716 32.3833C11.9818 32.3928 11.9938 32.4 12.0069 32.4046C12.02 32.4091 12.0339 32.4109 12.0477 32.4099H35.4639C35.4913 32.4099 35.5177 32.3996 35.5378 32.3809C35.5579 32.3623 35.5702 32.3367 35.5721 32.3093V30.8787C35.5722 30.8492 35.561 30.8208 35.5409 30.7993C35.5208 30.7778 35.4933 30.7647 35.4639 30.7627Z" fill="white" style="fill:white;fill-opacity:1;"/>
<path d="M35.4639 33.6084H12.0477C12.019 33.6084 11.9915 33.6198 11.9712 33.6401C11.9509 33.6604 11.9395 33.6879 11.9395 33.7167V35.155C11.9394 35.1689 11.9422 35.1827 11.9478 35.1954C11.9533 35.2081 11.9614 35.2196 11.9716 35.229C11.9818 35.2384 11.9938 35.2457 12.0069 35.2503C12.02 35.2548 12.0339 35.2566 12.0477 35.2556H35.4639C35.4913 35.2556 35.5177 35.2453 35.5378 35.2266C35.5579 35.208 35.5702 35.1824 35.5721 35.155V33.7167C35.5721 33.6879 35.5607 33.6604 35.5404 33.6401C35.5201 33.6198 35.4926 33.6084 35.4639 33.6084Z" fill="white" style="fill:white;fill-opacity:1;"/>
<path d="M31.0101 21.6454C30.4336 21.1798 29.7242 20.909 28.984 20.8721C28.2807 20.8744 27.6061 21.1519 27.1049 21.6454C27.0833 21.6634 27.0659 21.6858 27.0539 21.7112C27.0419 21.7366 27.0355 21.7642 27.0353 21.7923V21.9161C27.0343 21.9466 27.04 21.9769 27.052 22.005C27.0641 22.033 27.0821 22.0581 27.1049 22.0784C27.127 22.0971 27.1533 22.1104 27.1815 22.1171C27.2097 22.1238 27.2391 22.1238 27.2673 22.1171H27.3369C27.3809 22.1005 27.4206 22.074 27.4529 22.0398C27.7451 21.8941 28.0703 21.8275 28.3963 21.8464C29.299 21.8632 30.1615 22.2226 30.8091 22.8518C30.8651 22.9061 30.9399 22.9365 31.0179 22.9368C31.0834 22.9452 31.1496 22.9287 31.2035 22.8904C31.8485 22.2565 32.712 21.8939 33.6162 21.8774C33.9422 21.8584 34.2674 21.9251 34.5597 22.0707C34.5963 22.1071 34.6415 22.1336 34.6911 22.148C34.734 22.1612 34.7798 22.1612 34.8226 22.148C34.8648 22.1362 34.902 22.111 34.9285 22.0761C34.9551 22.0412 34.9695 21.9986 34.9695 21.9547V21.8387C34.9691 21.7835 34.9469 21.7307 34.9077 21.6918C34.4063 21.1785 33.7227 20.8839 33.0053 20.8721C32.2666 20.9047 31.5584 21.1761 30.9869 21.6454" fill="white" style="fill:white;fill-opacity:1;"/>
<path d="M29.5557 12.3109C29.5305 12.3223 29.5083 12.3394 29.4908 12.3609C29.4734 12.3824 29.4612 12.4076 29.4552 12.4347V12.512C29.4435 12.5402 29.4375 12.5704 29.4375 12.6009C29.4375 12.6315 29.4435 12.6617 29.4552 12.6899C29.4728 12.7125 29.495 12.7311 29.5203 12.7444C29.5457 12.7577 29.5736 12.7655 29.6021 12.7672C29.6405 12.7745 29.6798 12.7745 29.7181 12.7672C29.7642 12.7593 29.8113 12.7593 29.8573 12.7672C30.2064 12.7887 30.5438 12.9005 30.8367 13.0916C31.1295 13.2828 31.3676 13.5467 31.5277 13.8576C31.5621 13.915 31.6176 13.9567 31.6824 13.9736H31.752C31.7928 13.9824 31.8349 13.9824 31.8757 13.9736C32.1989 13.808 32.5565 13.7206 32.9197 13.7184C33.3047 13.7003 33.6834 13.821 33.9869 14.0586C34.0063 14.0922 34.0326 14.1212 34.0642 14.1437L34.1415 14.1824H34.1957C34.2262 14.1893 34.2579 14.1893 34.2885 14.1824C34.3128 14.1697 34.3342 14.1522 34.3515 14.1309C34.3688 14.1096 34.3816 14.085 34.389 14.0586V13.989C34.3933 13.9713 34.3933 13.9527 34.389 13.9349C34.3969 13.9019 34.3969 13.8674 34.389 13.8344C34.2394 13.544 34.0118 13.3012 33.7317 13.1332C33.4516 12.9652 33.1303 12.8786 32.8037 12.8832C32.5157 12.8839 32.2302 12.9363 31.9608 13.0379C31.7971 12.7692 31.5739 12.5416 31.3085 12.3727C31.043 12.2037 30.7423 12.098 30.4296 12.0635C30.1254 12.0662 29.826 12.1403 29.5557 12.28" fill="white" style="fill:white;fill-opacity:1;"/>
<path d="M24.6069 15.9301V16.0383C24.6095 16.0671 24.6182 16.0951 24.6325 16.1202C24.6468 16.1454 24.6664 16.1671 24.6899 16.184C24.7134 16.2009 24.7402 16.2125 24.7686 16.2181C24.797 16.2236 24.8263 16.223 24.8544 16.2162C24.8928 16.1974 24.927 16.1711 24.9549 16.1389C25.2281 15.9936 25.5352 15.9242 25.8442 15.9378C26.5264 15.9467 27.1836 16.1959 27.7002 16.6415C27.7504 16.6834 27.8128 16.7078 27.8781 16.7111C27.9494 16.7045 28.0156 16.6714 28.0637 16.6183C28.3219 16.3259 28.6381 16.0903 28.9922 15.9266C29.3463 15.7628 29.7306 15.6745 30.1207 15.6671C30.3307 15.6564 30.5402 15.6962 30.7316 15.7831C30.7667 15.8099 30.8059 15.8307 30.8476 15.845H30.9868C31.0282 15.8312 31.0637 15.8039 31.0876 15.7674C31.1114 15.7309 31.1223 15.6874 31.1183 15.6439V15.5511C31.118 15.5242 31.1116 15.4976 31.0995 15.4735C31.0875 15.4494 31.0701 15.4283 31.0487 15.4119C30.6371 15.0395 30.1035 14.8304 29.5484 14.8242C28.8987 14.8543 28.2802 15.1116 27.8007 15.5511C27.3446 15.2356 26.8083 15.0559 26.2541 15.033C25.938 15.0365 25.6262 15.1073 25.3395 15.2406C25.0528 15.374 24.7978 15.5668 24.5915 15.8063C24.5731 15.826 24.5588 15.8491 24.5495 15.8743C24.5402 15.8995 24.5361 15.9264 24.5373 15.9533" fill="white" style="fill:white;fill-opacity:1;"/>
<path d="M12.752 17.7938C12.7541 17.1203 13.023 16.4752 13.4999 15.9997C13.9768 15.5243 14.6228 15.2573 15.2962 15.2573H15.4586C15.4958 14.7529 15.644 14.2629 15.8925 13.8224C16.1411 13.3819 16.4839 13.0017 16.8964 12.7091C17.309 12.4165 17.7811 12.2187 18.279 12.1297C18.7769 12.0407 19.2883 12.0629 19.7766 12.1945C20.265 12.3262 20.7182 12.5641 21.1039 12.8913C21.4896 13.2185 21.7983 13.6268 22.0079 14.0871C22.2174 14.5475 22.3227 15.0484 22.3161 15.5542C22.3096 16.0599 22.1914 16.5579 21.97 17.0127C22.8538 17.2588 23.6214 17.8111 24.1355 18.571C24.6496 19.3309 24.8768 20.2488 24.7764 21.1608C24.676 22.0727 24.2546 22.9193 23.5875 23.5491C22.9204 24.179 22.051 24.5511 21.1348 24.599H16.0077C15.4776 24.5987 14.9591 24.4432 14.5164 24.1516C14.0736 23.8601 13.7259 23.4453 13.5162 22.9584C13.3065 22.4716 13.2439 21.9339 13.3362 21.4119C13.4286 20.8899 13.6717 20.4063 14.0357 20.0209C13.6433 19.7971 13.3175 19.4728 13.0919 19.0814C12.8663 18.69 12.749 18.2455 12.752 17.7938Z" fill="white" style="fill:white;fill-opacity:1;"/>
</g>
<defs>
<clipPath id="clip0_18792_43825">
<rect width="48" height="48" rx="24" fill="white" style="fill:white;fill-opacity:1;"/>
</clipPath>
</defs>
</svg>
