<svg width="48" height="48" viewBox="0 0 48 48" fill="none" xmlns="http://www.w3.org/2000/svg">
<g clip-path="url(#clip0_18792_43818)">
<path d="M48 0H0V48H48V0Z" fill="#007DBB" style="fill:#007DBB;fill:color(display-p3 0.0000 0.4902 0.7333);fill-opacity:1;"/>
<path d="M36.8858 28.8339C36.2825 28.014 32.3611 23.0176 26.831 23.0176C22.0589 23.0176 16.9541 27.3489 16.9541 27.3489C16.9541 27.3489 15.036 23.4198 11.1146 23.0408H11.0141C10.9736 23.0427 10.9354 23.0596 10.9068 23.0882C10.8782 23.1168 10.8613 23.1551 10.8594 23.1955C10.8726 23.2448 10.8935 23.2918 10.9213 23.3347C12.0934 24.9739 12.7236 26.9386 12.7236 28.9538C12.7236 30.9689 12.0934 32.9337 10.9213 34.5728V34.627C10.9137 34.6549 10.9137 34.6842 10.9213 34.7121C10.9229 34.7513 10.9388 34.7885 10.9658 34.8169C10.9928 34.8454 11.0292 34.8631 11.0682 34.8668H11.1533C15.0901 34.4955 17.016 30.5587 17.016 30.5587C17.016 30.5587 22.1207 34.89 26.8929 34.89C32.3844 34.89 36.3057 29.8935 36.9477 29.0737L36.9941 29.0195C37.0042 29.0005 37.0096 28.9792 37.0096 28.9576C37.0096 28.9361 37.0042 28.9148 36.9941 28.8958L36.9477 28.8416M29.9867 29.6151C29.6682 29.6166 29.3564 29.5235 29.0908 29.3477C28.8252 29.1719 28.6178 28.9212 28.4949 28.6273C28.3719 28.3335 28.3389 28.0098 28.4001 27.6972C28.4613 27.3846 28.614 27.0973 28.8386 26.8715C29.0633 26.6457 29.35 26.4917 29.6622 26.429C29.9745 26.3663 30.2984 26.3977 30.5928 26.5193C30.8872 26.6408 31.1389 26.847 31.316 27.1117C31.4932 27.3764 31.5877 27.6878 31.5877 28.0063C31.5877 28.4316 31.4193 28.8397 31.1192 29.1411C30.8192 29.4426 30.412 29.613 29.9867 29.6151Z" fill="white" style="fill:white;fill-opacity:1;"/>
<path d="M16.6531 18.539V18.4926C16.6837 18.4859 16.7154 18.4859 16.7459 18.4926C16.7867 18.4932 16.8257 18.5099 16.8542 18.539C19.8552 21.3931 22.9954 19.0805 23.6528 18.539L23.7147 18.4772H23.8384L23.9003 18.539C24.5577 19.0805 27.6979 21.3931 30.6912 18.539C30.7047 18.5239 30.7214 18.5118 30.7401 18.5038C30.7588 18.4958 30.7791 18.492 30.7994 18.4926C30.8273 18.4851 30.8567 18.4851 30.8845 18.4926C30.9019 18.5061 30.9175 18.5217 30.9309 18.539C31.511 19.1114 34.0247 21.2693 36.6776 18.9644C36.7055 18.932 36.7218 18.8912 36.724 18.8484V17.7579C36.724 17.7365 36.7198 17.7154 36.7117 17.6957C36.7035 17.676 36.6915 17.6581 36.6765 17.643C36.6614 17.6279 36.6435 17.616 36.6238 17.6078C36.6041 17.5996 36.5829 17.5954 36.5616 17.5954L36.4843 17.6341C35.5829 18.1212 34.5499 18.3088 33.5348 18.1697C32.5198 18.0307 31.5753 17.5722 30.8381 16.8607L30.7685 16.7988C30.7486 16.791 30.7265 16.791 30.7066 16.7988H30.6989C30.6635 16.8075 30.633 16.8297 30.6138 16.8607C29.9332 17.3789 26.7466 19.5059 23.9931 16.8993L23.9467 16.8607C23.9331 16.8455 23.9164 16.8335 23.8977 16.8254C23.879 16.8174 23.8588 16.8136 23.8384 16.8143C23.818 16.813 23.7976 16.8166 23.7788 16.8247C23.76 16.8327 23.7433 16.845 23.7301 16.8607L23.6837 16.8993C20.8839 19.5059 17.7437 17.3789 17.0553 16.8607C17.0483 16.8449 17.0376 16.8311 17.0241 16.8204C17.0107 16.8096 16.9949 16.8022 16.978 16.7988H16.9316C16.9089 16.7917 16.8846 16.7917 16.862 16.7988L16.7923 16.8607C16.0564 17.5715 15.1132 18.0297 14.0995 18.1687C13.0858 18.3078 12.0541 18.1206 11.1539 17.6341L11.0766 17.5954C11.0553 17.5954 11.0341 17.5996 11.0144 17.6078C10.9947 17.616 10.9768 17.6279 10.9617 17.643C10.9466 17.6581 10.9347 17.676 10.9265 17.6957C10.9184 17.7154 10.9142 17.7365 10.9142 17.7579V18.8484C10.9134 18.8699 10.9171 18.8913 10.9251 18.9113C10.9331 18.9313 10.9452 18.9494 10.9606 18.9644C13.6135 21.2848 16.1272 19.1114 16.7073 18.539" fill="white" style="fill:white;fill-opacity:1;"/>
<path d="M11.0523 13.62C11.0313 13.6189 11.0104 13.6221 10.9907 13.6294C10.9711 13.6368 10.9531 13.648 10.9379 13.6624C10.9227 13.6769 10.9106 13.6943 10.9024 13.7136C10.8941 13.7329 10.8899 13.7537 10.8899 13.7747V14.8729C10.8887 14.8934 10.8922 14.9138 10.9003 14.9326C10.9083 14.9514 10.9207 14.968 10.9363 14.9812C13.5892 17.3016 16.1029 15.1282 16.683 14.5558V14.5094C16.7134 14.5016 16.7454 14.5016 16.7758 14.5094C16.813 14.5091 16.8489 14.523 16.8763 14.5481C19.8773 17.4099 23.0175 15.0895 23.6749 14.5481L23.7368 14.494C23.7567 14.4862 23.7788 14.4862 23.7987 14.494C23.8187 14.4869 23.8405 14.4869 23.8606 14.494L23.9224 14.5481C24.5799 15.0895 27.72 17.4099 30.7133 14.5481C30.7438 14.523 30.7821 14.5094 30.8216 14.5094C30.8494 14.5015 30.8788 14.5015 30.9066 14.5094L30.953 14.5558C31.5331 15.1282 34.0468 17.2861 36.6997 14.9812C36.7128 14.9463 36.7128 14.9079 36.6997 14.8729V13.7747C36.7009 13.7541 36.6976 13.7334 36.6902 13.7142C36.6829 13.6949 36.6715 13.6774 36.6569 13.6628C36.6423 13.6482 36.6248 13.6369 36.6055 13.6295C36.5863 13.6221 36.5657 13.6189 36.5451 13.62L36.4677 13.6664C35.566 14.1522 34.5333 14.3392 33.5185 14.2002C32.5038 14.0611 31.5594 13.6034 30.8216 12.8929L30.752 12.8311H30.6901H30.6978C30.6652 12.8451 30.6362 12.8663 30.6127 12.8929C29.9321 13.4189 26.7455 15.5459 23.992 12.9316L23.9456 12.8929C23.9162 12.8651 23.8778 12.8486 23.8373 12.8465C23.7965 12.8471 23.7576 12.8638 23.7291 12.8929L23.6827 12.9316C20.8828 15.5459 17.7426 13.4189 17.0542 12.8929C17.0355 12.8648 17.0085 12.8431 16.9769 12.8311H16.9305H16.8609L16.799 12.8929C16.0612 13.6034 15.1168 14.0611 14.102 14.2002C13.0872 14.3392 12.0545 14.1522 11.1529 13.6664L11.0755 13.62" fill="white" style="fill:white;fill-opacity:1;"/>
</g>
<defs>
<clipPath id="clip0_18792_43818">
<rect width="48" height="48" rx="24" fill="white" style="fill:white;fill-opacity:1;"/>
</clipPath>
</defs>
</svg>
