<svg width="48" height="48" viewBox="0 0 48 48" fill="none" xmlns="http://www.w3.org/2000/svg">
<g clip-path="url(#clip0_18792_43728)">
<path d="M48 0H0V48H48V0Z" fill="#EA1D2D" style="fill:#EA1D2D;fill:color(display-p3 0.9176 0.1137 0.1765);fill-opacity:1;"/>
<path d="M38.0488 17.3884C38.0488 17.1238 38.1275 16.8652 38.2749 16.6452C38.4222 16.4253 38.6317 16.2538 38.8768 16.1526C39.1219 16.0514 39.3915 16.0249 39.6517 16.0765C39.9119 16.1281 40.1508 16.2555 40.3384 16.4426C40.526 16.6296 40.6537 16.8679 40.7055 17.1274C40.7572 17.3869 40.7307 17.6558 40.6292 17.9002C40.5276 18.1446 40.3557 18.3535 40.1352 18.5005C39.9146 18.6475 39.6553 18.7259 39.39 18.7259C39.0343 18.7259 38.6932 18.585 38.4417 18.3342C38.1901 18.0833 38.0488 17.7431 38.0488 17.3884Z" fill="white" style="fill:white;fill-opacity:1;"/>
<path d="M40.9678 19.208C41.4103 19.2499 41.8212 19.4548 42.1202 19.7827C42.4193 20.1106 42.585 20.538 42.5849 20.9813V24.6806C42.5938 24.7536 42.5871 24.8277 42.5652 24.898C42.5433 24.9682 42.5066 25.033 42.4577 25.0881C42.4088 25.1432 42.3488 25.1873 42.2815 25.2175C42.2142 25.2477 42.1413 25.2633 42.0676 25.2633C41.9938 25.2633 41.9209 25.2477 41.8536 25.2175C41.7864 25.1873 41.7263 25.1432 41.6774 25.0881C41.6285 25.033 41.5919 24.9682 41.5699 24.898C41.548 24.8277 41.5413 24.7536 41.5502 24.6806V21.501C41.5562 21.4655 41.5539 21.4292 41.5437 21.3947C41.5334 21.3602 41.5154 21.3285 41.491 21.302C41.4666 21.2754 41.4365 21.2548 41.403 21.2416C41.3694 21.2284 41.3333 21.223 41.2973 21.2258C41.144 21.2258 41.1134 21.3787 41.1057 21.4857V31.0093C41.0642 31.1746 40.9685 31.3212 40.8338 31.4261C40.6991 31.5309 40.5332 31.5878 40.3623 31.5878C40.1915 31.5878 40.0255 31.5309 39.8908 31.4261C39.7561 31.3212 39.6604 31.1746 39.6189 31.0093V25.5214C39.6211 25.4924 39.6171 25.4632 39.6072 25.4359C39.5973 25.4085 39.5817 25.3835 39.5614 25.3626C39.5411 25.3417 39.5167 25.3252 39.4896 25.3144C39.4625 25.3036 39.4335 25.2986 39.4043 25.2997C39.3752 25.2986 39.3461 25.3036 39.319 25.3144C39.2919 25.3252 39.2675 25.3417 39.2472 25.3626C39.2269 25.3835 39.2113 25.4085 39.2014 25.4359C39.1915 25.4632 39.1875 25.4924 39.1897 25.5214V31.0093C39.1897 31.212 39.109 31.4064 38.9652 31.5497C38.8215 31.6931 38.6266 31.7736 38.4233 31.7736C38.22 31.7736 38.0251 31.6931 37.8814 31.5497C37.7376 31.4064 37.6569 31.212 37.6569 31.0093V21.4857C37.6569 21.3787 37.6569 21.2258 37.473 21.2258C37.289 21.2258 37.22 21.3864 37.22 21.501V24.6806C37.22 24.8185 37.1651 24.9507 37.0674 25.0481C36.9697 25.1456 36.8371 25.2004 36.6989 25.2004C36.5607 25.2004 36.4281 25.1456 36.3304 25.0481C36.2326 24.9507 36.1777 24.8185 36.1777 24.6806V20.9813C36.1778 20.5368 36.3446 20.1084 36.6452 19.7803C36.9459 19.4522 37.3587 19.2481 37.8025 19.208H40.9294" fill="white" style="fill:white;fill-opacity:1;"/>
<path d="M30.1004 18.0613C30.1004 17.8113 30.0258 17.5668 29.8862 17.3591C29.7466 17.1514 29.5481 16.9898 29.3162 16.8948C29.0842 16.7998 28.8292 16.7758 28.5835 16.8257C28.3378 16.8756 28.1125 16.9972 27.9362 17.1751C27.76 17.353 27.6408 17.5792 27.5937 17.8248C27.5467 18.0704 27.5739 18.3245 27.672 18.5547C27.7701 18.7848 27.9345 18.9807 28.1445 19.1174C28.3545 19.2541 28.6004 19.3255 28.8512 19.3225C29.1866 19.3225 29.5082 19.1896 29.7454 18.9531C29.9825 18.7166 30.1158 18.3958 30.1158 18.0613" fill="white" style="fill:white;fill-opacity:1;"/>
<path d="M26.2844 20.92L25.2267 24.3442C25.2267 24.3442 25.0428 24.9709 25.5793 25.1085C26.1158 25.2461 26.269 24.6575 26.269 24.6575L27.1197 21.7989C27.1197 21.7989 27.1657 21.5849 27.3267 21.6308C27.4876 21.6766 27.434 21.9136 27.434 21.9136L25.9548 27.2639H27.319V31.0856C27.3366 31.2486 27.4141 31.3995 27.5364 31.5091C27.6588 31.6187 27.8175 31.6793 27.982 31.6793C28.1464 31.6793 28.3051 31.6187 28.4275 31.5091C28.5499 31.3995 28.6273 31.2486 28.6449 31.0856V27.2639H29.0204V31.0856C29.0123 31.266 29.0764 31.4422 29.1985 31.5755C29.3207 31.7088 29.491 31.7883 29.6719 31.7964C29.8528 31.8045 30.0295 31.7406 30.1632 31.6188C30.2968 31.4969 30.3765 31.3271 30.3846 31.1467V27.3251H31.7565L30.285 21.9747C30.285 21.9747 30.216 21.7378 30.3846 21.6919C30.5532 21.6461 30.5992 21.8601 30.5992 21.8601L31.4423 24.7187C31.4423 24.7187 31.6109 25.3301 32.1397 25.1696C32.6685 25.0091 32.4846 24.4053 32.4846 24.4053L31.4269 20.9811C31.4269 20.9811 31.0514 19.9951 30.216 19.9951H27.5336C26.6982 19.9951 26.3227 20.9811 26.3227 20.9811" fill="white" style="fill:white;fill-opacity:1;"/>
<path d="M22.5132 18.0616C22.5147 17.81 22.4412 17.5636 22.302 17.3538C22.1628 17.144 21.9642 16.9802 21.7314 16.8832C21.4986 16.7862 21.2422 16.7605 20.9947 16.8092C20.7472 16.8579 20.5198 16.9789 20.3414 17.1568C20.163 17.3347 20.0417 17.5615 19.9928 17.8083C19.944 18.0551 19.9698 18.3109 20.0671 18.543C20.1643 18.7752 20.3286 18.9732 20.5389 19.1121C20.7493 19.2509 20.9964 19.3242 21.2486 19.3227C21.584 19.3227 21.9057 19.1898 22.1428 18.9533C22.38 18.7168 22.5132 18.396 22.5132 18.0616Z" fill="white" style="fill:white;fill-opacity:1;"/>
<path d="M18.6887 20.92L17.6387 24.3442C17.6387 24.3442 17.4471 24.9709 17.9836 25.1085C18.5201 25.2461 18.6734 24.6575 18.6734 24.6575L19.5241 21.7989C19.5241 21.7989 19.5701 21.5849 19.7387 21.6308C19.9073 21.6766 19.8383 21.9136 19.8383 21.9136L18.3592 27.2639H19.7387V31.0856C19.7387 31.2599 19.8081 31.4271 19.9317 31.5504C20.0553 31.6736 20.223 31.7429 20.3978 31.7429C20.5726 31.7429 20.7402 31.6736 20.8639 31.5504C20.9875 31.4271 21.0569 31.2599 21.0569 31.0856V27.2639H21.4324V31.0856C21.457 31.234 21.5318 31.3696 21.6444 31.4696C21.7571 31.5696 21.9008 31.6281 22.0514 31.6353C22.2021 31.6424 22.3507 31.5978 22.4724 31.5089C22.594 31.42 22.6815 31.2921 22.72 31.1467V27.3251H24.0995L22.6204 21.9747C22.6204 21.9747 22.5591 21.7378 22.72 21.6919C22.8809 21.6461 22.9346 21.8601 22.9346 21.8601L23.7853 24.7187C23.7853 24.7187 23.9463 25.3301 24.4751 25.1696C25.0039 25.0091 24.82 24.4053 24.82 24.4053L23.77 20.9811C23.77 20.9811 23.3944 19.9951 22.5591 19.9951H19.8996C19.0719 19.9951 18.6887 20.9811 18.6887 20.9811" fill="white" style="fill:white;fill-opacity:1;"/>
<path d="M34.3624 25.131C34.5719 25.131 34.7766 25.069 34.9507 24.9527C35.1248 24.8365 35.2604 24.6713 35.3402 24.4781C35.42 24.2849 35.4405 24.0725 35.3991 23.8677C35.3576 23.6628 35.2561 23.4749 35.1075 23.3277C34.9588 23.1805 34.7696 23.0807 34.564 23.0408C34.3583 23.001 34.1454 23.023 33.9523 23.104C33.7592 23.185 33.5945 23.3214 33.4792 23.4958C33.3639 23.6703 33.3032 23.875 33.3047 24.0839C33.3047 24.2221 33.3321 24.3589 33.3854 24.4864C33.4386 24.6139 33.5166 24.7297 33.615 24.8271C33.7133 24.9244 33.8299 25.0014 33.9582 25.0535C34.0865 25.1057 34.2238 25.132 34.3624 25.131Z" fill="white" style="fill:white;fill-opacity:1;"/>
<path d="M31.8331 28.4026C31.8104 28.4452 31.7963 28.4919 31.7917 28.54C31.7871 28.588 31.7921 28.6365 31.8063 28.6827C31.8205 28.7289 31.8438 28.7718 31.8747 28.8089C31.9056 28.8461 31.9436 28.8769 31.9864 28.8994C32.0661 28.9376 32.1574 28.9438 32.2415 28.9168C32.3257 28.8898 32.3962 28.8315 32.4386 28.7542L33.0134 26.9274C33.0134 26.9274 33.113 26.8051 33.113 26.9274V31.2229C33.113 31.2938 33.1271 31.3641 33.1546 31.4295C33.182 31.4949 33.2222 31.5542 33.2728 31.604C33.3235 31.6538 33.3835 31.693 33.4495 31.7195C33.5155 31.7459 33.5861 31.759 33.6572 31.758C33.7994 31.758 33.9359 31.7016 34.0365 31.6013C34.1371 31.5009 34.1936 31.3648 34.1936 31.2229V29.5338C34.1936 29.5338 34.1936 29.2968 34.3622 29.2968C34.5309 29.2968 34.5232 29.5338 34.5232 29.5338V31.2306C34.5232 31.3015 34.5373 31.3717 34.5648 31.4371C34.5922 31.5025 34.6324 31.5619 34.683 31.6116C34.7337 31.6614 34.7937 31.7007 34.8597 31.7271C34.9257 31.7535 34.9962 31.7666 35.0673 31.7656C35.2096 31.7656 35.3461 31.7092 35.4467 31.6089C35.5473 31.5086 35.6038 31.3725 35.6038 31.2306V26.935C35.6038 26.8051 35.6728 26.935 35.6728 26.935L36.125 28.1885C36.1874 28.3909 36.2722 28.5858 36.3779 28.7694C36.4262 28.7895 36.478 28.7999 36.5303 28.8C36.5827 28.8001 36.6345 28.7899 36.6829 28.7701C36.7313 28.7502 36.7753 28.721 36.8124 28.6842C36.8495 28.6474 36.8789 28.6036 36.8991 28.5554C36.9334 28.4962 36.9514 28.4289 36.9514 28.3605C36.9514 28.2921 36.9334 28.2249 36.8991 28.1656C36.8991 28.1656 36.2323 26.5147 36.1326 26.2854C35.8951 25.5898 35.4659 25.5975 35.052 25.5898C34.6382 25.5822 34.3852 25.5898 34.3852 25.5898C34.3852 25.5898 34.117 25.5898 33.5652 25.5898C33.0134 25.5898 32.8448 25.8879 32.2316 27.4471C32.1473 27.6688 31.8561 28.3949 31.8484 28.4408L31.8331 28.4026Z" fill="white" style="fill:white;fill-opacity:1;"/>
<path d="M11.2244 17.3884C11.2244 17.1238 11.1458 16.8652 10.9984 16.6452C10.851 16.4253 10.6415 16.2538 10.3965 16.1526C10.1514 16.0514 9.88171 16.0249 9.62155 16.0765C9.36138 16.1281 9.1224 16.2555 8.93482 16.4426C8.74725 16.6296 8.61951 16.8679 8.56776 17.1274C8.51601 17.3869 8.54257 17.6558 8.64409 17.9002C8.7456 18.1446 8.91751 18.3535 9.13807 18.5005C9.35863 18.6475 9.61794 18.7259 9.8832 18.7259C10.2389 18.7259 10.5801 18.585 10.8316 18.3342C11.0831 18.0833 11.2244 17.7431 11.2244 17.3884Z" fill="white" style="fill:white;fill-opacity:1;"/>
<path d="M8.28892 19.208C7.84643 19.2499 7.43551 19.4548 7.13645 19.7827C6.8374 20.1106 6.67172 20.538 6.6718 20.9813V24.6806C6.66287 24.7536 6.66959 24.8277 6.69151 24.898C6.71343 24.9682 6.75004 25.033 6.79895 25.0881C6.84785 25.1432 6.90791 25.1873 6.97517 25.2175C7.04244 25.2477 7.11536 25.2633 7.18913 25.2633C7.26289 25.2633 7.33581 25.2477 7.40308 25.2175C7.47034 25.1873 7.5304 25.1432 7.5793 25.0881C7.6282 25.033 7.66482 24.9682 7.68674 24.898C7.70866 24.8277 7.71538 24.7536 7.70645 24.6806V21.501C7.70052 21.4655 7.70277 21.4292 7.71303 21.3947C7.72329 21.3602 7.74129 21.3285 7.76567 21.302C7.79004 21.2754 7.82015 21.2548 7.85371 21.2416C7.88727 21.2284 7.9234 21.223 7.95936 21.2258C8.11264 21.2258 8.1433 21.3787 8.15096 21.4857V31.0093C8.12264 31.122 8.12046 31.2396 8.14457 31.3533C8.16869 31.467 8.21848 31.5737 8.29015 31.6653C8.36183 31.7569 8.4535 31.831 8.5582 31.882C8.6629 31.9329 8.77787 31.9594 8.89438 31.9594C9.01088 31.9594 9.12586 31.9329 9.23056 31.882C9.33526 31.831 9.42693 31.7569 9.4986 31.6653C9.57027 31.5737 9.62006 31.467 9.64418 31.3533C9.6683 31.2396 9.66612 31.122 9.63779 31.0093V25.5214C9.63561 25.4924 9.6396 25.4632 9.64951 25.4359C9.65941 25.4085 9.67501 25.3835 9.69527 25.3626C9.71554 25.3417 9.74001 25.3252 9.76709 25.3144C9.79417 25.3036 9.82323 25.2986 9.85239 25.2997C9.88154 25.2986 9.9106 25.3036 9.93768 25.3144C9.96476 25.3252 9.98923 25.3417 10.0095 25.3626C10.0298 25.3835 10.0454 25.4085 10.0553 25.4359C10.0652 25.4632 10.0692 25.4924 10.067 25.5214V31.0093C10.067 31.212 10.1477 31.4064 10.2915 31.5497C10.4352 31.6931 10.6301 31.7736 10.8334 31.7736C11.0366 31.7736 11.2316 31.6931 11.3753 31.5497C11.519 31.4064 11.5998 31.212 11.5998 31.0093V21.4857C11.5998 21.3787 11.5998 21.2258 11.7837 21.2258C11.9677 21.2258 12.0366 21.3864 12.0366 21.501V24.6806C12.0366 24.8185 12.0915 24.9507 12.1893 25.0481C12.287 25.1456 12.4196 25.2004 12.5578 25.2004C12.696 25.2004 12.8286 25.1456 12.9263 25.0481C13.024 24.9507 13.079 24.8185 13.079 24.6806V20.9813C13.0789 20.5368 12.9121 20.1084 12.6115 19.7803C12.3108 19.4522 11.898 19.2481 11.4542 19.208H8.28892Z" fill="white" style="fill:white;fill-opacity:1;"/>
<path d="M5.93606 31.7886H5.85941C5.82264 31.7821 5.78752 31.7685 5.75604 31.7485C5.72457 31.7284 5.69737 31.7024 5.67601 31.6719C5.65464 31.6413 5.63954 31.6069 5.63156 31.5705C5.62357 31.5341 5.62287 31.4966 5.62949 31.4599L6.81742 25.1771C6.82383 25.1397 6.83774 25.1039 6.85832 25.0719C6.8789 25.0399 6.90573 25.0124 6.9372 24.991C6.96868 24.9696 7.00415 24.9548 7.04151 24.9474C7.07887 24.9399 7.11734 24.9401 7.15464 24.9478C7.1912 24.9542 7.22609 24.9678 7.25722 24.988C7.28836 25.0081 7.3151 25.0343 7.33585 25.065C7.3566 25.0957 7.37093 25.1302 7.37799 25.1666C7.38504 25.2029 7.38467 25.2403 7.3769 25.2765L6.18897 31.5593C6.17755 31.6197 6.14669 31.6748 6.10105 31.7162C6.05541 31.7576 5.99748 31.783 5.93606 31.7886Z" fill="white" style="fill:white;fill-opacity:1;"/>
<path d="M13.669 24.5811C13.6241 24.5119 13.5581 24.4589 13.4806 24.4302C13.4031 24.4015 13.3184 24.3985 13.2392 24.4217C13.1599 24.4449 13.0902 24.4931 13.0406 24.559C12.991 24.6249 12.9641 24.705 12.9639 24.7874C12.9695 24.8449 12.9824 24.9014 13.0022 24.9556L14.0598 26.8741C14.1001 26.9525 14.1236 27.0384 14.1288 27.1263V31.246C14.1288 31.3839 14.1837 31.5161 14.2814 31.6136C14.3792 31.711 14.5117 31.7658 14.65 31.7658C14.7882 31.7658 14.9207 31.711 15.0185 31.6136C15.1162 31.5161 15.1711 31.3839 15.1711 31.246V29.618C15.1711 29.618 15.1711 29.3811 15.3244 29.3811C15.4777 29.3811 15.4853 29.618 15.4853 29.618V31.2384C15.4853 31.3763 15.5402 31.5084 15.638 31.6059C15.7357 31.7034 15.8683 31.7582 16.0065 31.7582C16.1447 31.7582 16.2773 31.7034 16.375 31.6059C16.4727 31.5084 16.5277 31.3763 16.5277 31.2384V27.1263C16.532 27.0391 16.5528 26.9536 16.589 26.8741L17.57 25.1008C17.6213 25.0007 17.6624 24.8957 17.6926 24.7874C17.6926 24.6861 17.6522 24.5889 17.5804 24.5172C17.5085 24.4455 17.411 24.4053 17.3094 24.4053C17.2441 24.4048 17.1797 24.4206 17.1222 24.4514C17.0646 24.4821 17.0157 24.5267 16.9798 24.5811C16.9798 24.5811 16.451 25.483 16.2901 25.6435C16.252 25.6922 16.2031 25.7313 16.1472 25.7578C16.0913 25.7844 16.03 25.7976 15.9682 25.7964H14.6883C14.6254 25.797 14.5632 25.7836 14.5061 25.7572C14.4491 25.7307 14.3987 25.6919 14.3587 25.6435C14.1978 25.483 13.7073 24.604 13.6766 24.5811H13.669Z" fill="white" style="fill:white;fill-opacity:1;"/>
<path d="M15.3247 25.1313C15.5351 25.1358 15.7421 25.0777 15.9192 24.9642C16.0963 24.8508 16.2355 24.6873 16.3188 24.4945C16.4022 24.3018 16.426 24.0886 16.3872 23.8823C16.3484 23.676 16.2488 23.4859 16.101 23.3364C15.9533 23.1869 15.7642 23.0847 15.5579 23.043C15.3516 23.0013 15.1376 23.0219 14.9431 23.1022C14.7486 23.1825 14.5826 23.3188 14.4663 23.4937C14.3499 23.6687 14.2886 23.8742 14.2901 24.0841C14.2901 24.3619 14.4007 24.6282 14.5976 24.8246C14.7945 25.021 15.0616 25.1313 15.34 25.1313" fill="white" style="fill:white;fill-opacity:1;"/>
<path d="M15.3321 26.6143L16.52 27.4779L17.0871 29.5569H15.3321H13.5693L14.1365 27.4779L15.3321 26.6143Z" fill="white" style="fill:white;fill-opacity:1;"/>
</g>
<defs>
<clipPath id="clip0_18792_43728">
<rect width="48" height="48" rx="24" fill="white" style="fill:white;fill-opacity:1;"/>
</clipPath>
</defs>
</svg>
