<svg width="56" height="56" viewBox="0 0 56 56" fill="none" xmlns="http://www.w3.org/2000/svg">
<g clip-path="url(#clip0_18792_43832)">
<path d="M56 0H0V56H56V0Z" fill="#00558A" style="fill:#00558A;fill:color(display-p3 0.0000 0.3333 0.5412);fill-opacity:1;"/>
<path d="M36.3289 19.3342C36.5059 19.145 36.634 18.9154 36.7019 18.6654C36.7698 18.4155 36.7755 18.1527 36.7186 17.8999C36.6616 17.6472 36.5437 17.4123 36.3752 17.2156C36.2066 17.0189 35.9924 16.8664 35.7514 16.7715C35.442 17.1819 35.3031 17.6958 35.3634 18.2062C35.5329 18.6897 35.8774 19.0922 36.3289 19.3342Z" fill="white" style="fill:white;fill-opacity:1;"/>
<path d="M38.9283 31.2369H34.0375C33.9403 31.2258 33.8417 31.2353 33.7484 31.2649C33.6551 31.2945 33.569 31.3435 33.496 31.4087C33.4229 31.4739 33.3644 31.5538 33.3244 31.6432C33.2844 31.7325 33.2637 31.8293 33.2637 31.9272C33.2637 32.0251 33.2844 32.122 33.3244 32.2113C33.3644 32.3007 33.4229 32.3806 33.496 32.4457C33.569 32.5109 33.6551 32.5599 33.7484 32.5895C33.8417 32.6191 33.9403 32.6287 34.0375 32.6175H38.9283C39.0978 32.5981 39.2542 32.517 39.3677 32.3897C39.4813 32.2624 39.544 32.0978 39.544 31.9272C39.544 31.7566 39.4813 31.592 39.3677 31.4647C39.2542 31.3374 39.0978 31.2563 38.9283 31.2369Z" fill="white" style="fill:white;fill-opacity:1;"/>
<path d="M38.9283 38.8619H34.0375C33.9403 38.8508 33.8417 38.8603 33.7484 38.89C33.6551 38.9196 33.569 38.9685 33.496 39.0337C33.4229 39.0989 33.3644 39.1788 33.3244 39.2682C33.2844 39.3575 33.2637 39.4543 33.2637 39.5522C33.2637 39.6501 33.2844 39.747 33.3244 39.8363C33.3644 39.9257 33.4229 40.0056 33.496 40.0707C33.569 40.1359 33.6551 40.1849 33.7484 40.2145C33.8417 40.2441 33.9403 40.2537 34.0375 40.2425H38.9283C39.0978 40.2231 39.2542 40.1421 39.3677 40.0148C39.4813 39.8875 39.544 39.7228 39.544 39.5522C39.544 39.3816 39.4813 39.217 39.3677 39.0897C39.2542 38.9624 39.0978 38.8813 38.9283 38.8619Z" fill="white" style="fill:white;fill-opacity:1;"/>
<path d="M38.7476 33.0953H34.2358C34.1321 33.0976 34.0334 33.1405 33.9609 33.2147C33.8884 33.2889 33.8478 33.3886 33.8478 33.4923V34.8639L30.8881 35.1887L26.5658 35.0895V32.4546C27.1454 32.3808 27.7185 32.2631 28.2803 32.1027C32.4491 30.9296 33.3515 28.3399 33.2613 25.9577C33.171 23.5755 33.947 22.5919 35.066 22.1678C35.3594 22.0615 35.6612 21.98 35.9683 21.9241C35.9975 22.6435 36.1312 23.3548 36.3653 24.0357H36.6631C36.4165 23.3516 36.2794 22.6329 36.2571 21.9061C36.5842 21.8745 36.9135 21.8745 37.2406 21.9061C36.9203 21.7112 36.6183 21.4877 36.3383 21.2384C36.569 20.2314 37.1237 19.328 37.9174 18.6667C38.3289 18.2733 38.6979 17.8378 39.0183 17.3673L38.7746 17.2139C38.4611 17.6652 38.1012 18.0826 37.7008 18.4591C36.9157 19.1303 36.3525 20.0239 36.0856 21.0218C35.8691 20.8233 35.6254 20.5796 35.3728 20.3089C34.3531 19.1539 33.0266 20.0021 31.1407 21.7527C29.2548 23.5033 26.8906 23.5574 24.5716 21.2023C21.5217 18.0711 18.8597 18.0892 17.0279 18.2696C18.2822 18.802 18.7153 19.9661 19.347 22.9348C20.0147 26.0479 21.6841 27.4466 23.967 27.6541C22.9113 27.8255 22.6406 27.9699 20.9351 29.152C19.7235 29.8116 18.3027 29.9735 16.9738 29.6032C18.3634 30.0453 20.0147 31.5071 21.4856 32.0125C22.3604 32.312 23.2703 32.497 24.1926 32.5629V35.0895L15.9902 34.918V36.6776L30.9151 36.3438L33.8749 36.6776V38.0492C33.8749 38.1521 33.9158 38.2508 33.9885 38.3236C34.0613 38.3963 34.16 38.4372 34.2629 38.4372H38.7746C38.8784 38.4372 38.978 38.3966 39.0522 38.3241C39.1265 38.2516 39.1693 38.1529 39.1717 38.0492V33.5374C39.1785 33.4793 39.1724 33.4203 39.1537 33.3648C39.1351 33.3093 39.1044 33.2586 39.0639 33.2164C39.0233 33.1741 38.974 33.1413 38.9193 33.1204C38.8646 33.0995 38.806 33.0909 38.7476 33.0953ZM24.8513 32.5448C25.1759 32.5629 25.5013 32.5629 25.8259 32.5448V35.0985H24.8513V32.5448Z" fill="white" style="fill:white;fill-opacity:1;"/>
<path d="M15.5116 36.3349C15.5177 36.4167 15.5076 36.4989 15.4819 36.5768C15.4562 36.6547 15.4153 36.7267 15.3616 36.7888C15.308 36.8508 15.2426 36.9017 15.1692 36.9384C15.0958 36.9751 15.0159 36.9969 14.9341 37.0026H14.5912C14.4252 36.991 14.2704 36.9144 14.1606 36.7893C14.0508 36.6643 13.9947 36.501 14.0047 36.3349V35.0986C13.9985 35.0156 14.0088 34.9323 14.035 34.8533C14.0612 34.7743 14.1027 34.7012 14.1572 34.6383C14.2117 34.5755 14.2781 34.524 14.3526 34.4868C14.4271 34.4497 14.5082 34.4276 14.5912 34.4219H14.9341C15.0167 34.4275 15.0974 34.4497 15.1714 34.4869C15.2455 34.5242 15.3113 34.5759 15.3651 34.6389C15.4189 34.7019 15.4595 34.775 15.4847 34.854C15.5098 34.9329 15.519 35.0161 15.5116 35.0986V36.3349Z" fill="white" style="fill:white;fill-opacity:1;"/>
<path d="M37.2226 15.1924C36.9146 15.6 36.7756 16.1106 36.8345 16.6181C37.0008 17.1034 37.3462 17.5069 37.8001 17.746C38.1039 17.3364 38.2424 16.8274 38.1881 16.3203C38.0218 15.835 37.6764 15.4315 37.2226 15.1924Z" fill="white" style="fill:white;fill-opacity:1;"/>
<path d="M38.5762 18.5583C38.9056 18.8852 39.3483 19.0726 39.8124 19.0816C40.2697 18.9838 40.6747 18.7202 40.9494 18.3417C40.6222 18.0169 40.1831 17.8297 39.7221 17.8184C39.2615 17.9142 38.8531 18.1779 38.5762 18.5583Z" fill="white" style="fill:white;fill-opacity:1;"/>
<path d="M39.5236 15.4454C39.1848 15.8713 39.0203 16.4099 39.0634 16.9523C39.5975 16.9948 40.1274 16.83 40.5432 16.4921C40.8772 16.0641 41.0382 15.5263 40.9944 14.9852C40.463 14.9423 39.9357 15.1072 39.5236 15.4454Z" fill="white" style="fill:white;fill-opacity:1;"/>
<path d="M38.3411 20.7152C38.811 20.7161 39.2644 20.5425 39.6134 20.2279C39.3587 19.8403 38.9644 19.5656 38.5126 19.4609C38.0427 19.46 37.5893 19.6337 37.2402 19.9482C37.495 20.3359 37.8892 20.6105 38.3411 20.7152Z" fill="white" style="fill:white;fill-opacity:1;"/>
</g>
<defs>
<clipPath id="clip0_18792_43832">
<rect width="56" height="56" rx="28" fill="white" style="fill:white;fill-opacity:1;"/>
</clipPath>
</defs>
</svg>
