<svg width="48" height="48" viewBox="0 0 48 48" fill="none" xmlns="http://www.w3.org/2000/svg">
<g clip-path="url(#clip0_18792_43789)">
<path d="M48 0H0V48H48V0Z" fill="#E01A83" style="fill:#E01A83;fill:color(display-p3 0.8784 0.1020 0.5137);fill-opacity:1;"/>
<path d="M28.4205 25.501H19.5851C19.5712 25.5009 19.5575 25.5038 19.5448 25.5093C19.5321 25.5148 19.5206 25.5229 19.5112 25.5331C19.5018 25.5432 19.4946 25.5552 19.49 25.5683C19.4854 25.5814 19.4836 25.5953 19.4847 25.6091V28.2659C19.4836 28.2797 19.4854 28.2936 19.49 28.3067C19.4946 28.3198 19.5018 28.3318 19.5112 28.3419C19.5206 28.3521 19.5321 28.3602 19.5448 28.3657C19.5575 28.3712 19.5712 28.3741 19.5851 28.374H28.4205C28.4343 28.3741 28.4481 28.3712 28.4608 28.3657C28.4735 28.3602 28.4849 28.3521 28.4943 28.3419C28.5038 28.3318 28.511 28.3198 28.5156 28.3067C28.5201 28.2936 28.522 28.2797 28.5209 28.2659V25.6091C28.522 25.5953 28.5201 25.5814 28.5156 25.5683C28.511 25.5552 28.5038 25.5432 28.4943 25.5331C28.4849 25.5229 28.4735 25.5148 28.4608 25.5093C28.4481 25.5038 28.4343 25.5009 28.4205 25.501Z" fill="white" style="fill:white;fill-opacity:1;"/>
<path d="M28.4205 19.8477H19.5851C19.5712 19.8476 19.5575 19.8504 19.5448 19.856C19.5321 19.8615 19.5206 19.8696 19.5112 19.8797C19.5018 19.8899 19.4946 19.9019 19.49 19.915C19.4854 19.9281 19.4836 19.942 19.4847 19.9558V22.6126C19.4836 22.6264 19.4854 22.6403 19.49 22.6534C19.4946 22.6665 19.5018 22.6785 19.5112 22.6886C19.5206 22.6988 19.5321 22.7069 19.5448 22.7124C19.5575 22.7179 19.5712 22.7207 19.5851 22.7207H28.4205C28.4343 22.7207 28.4481 22.7179 28.4608 22.7124C28.4735 22.7069 28.4849 22.6988 28.4943 22.6886C28.5038 22.6785 28.511 22.6665 28.5156 22.6534C28.5201 22.6403 28.522 22.6264 28.5209 22.6126V19.9558C28.522 19.942 28.5201 19.9281 28.5156 19.915C28.511 19.9019 28.5038 19.8899 28.4943 19.8797C28.4849 19.8696 28.4735 19.8615 28.4608 19.856C28.4481 19.8504 28.4343 19.8476 28.4205 19.8477Z" fill="white" style="fill:white;fill-opacity:1;"/>
<path d="M28.297 15.8315L24.0569 11.5914C24.0425 11.5773 24.023 11.5693 24.0028 11.5693C23.9826 11.5693 23.9632 11.5773 23.9488 11.5914L19.7087 15.8315C19.6964 15.8409 19.6877 15.8542 19.6838 15.8693C19.68 15.8843 19.6813 15.9002 19.6875 15.9144C19.6937 15.9286 19.7045 15.9403 19.7181 15.9477C19.7318 15.955 19.7475 15.9576 19.7628 15.9551H28.2583C28.2723 15.9541 28.2856 15.9489 28.2966 15.9402C28.3075 15.9316 28.3156 15.9198 28.3198 15.9064C28.324 15.8931 28.324 15.8788 28.32 15.8654C28.3159 15.8521 28.3079 15.8402 28.297 15.8315Z" fill="white" style="fill:white;fill-opacity:1;"/>
<path d="M32.2818 28.4049L36.5218 24.1648C36.536 24.1504 36.5439 24.131 36.5439 24.1107C36.5439 24.0905 36.536 24.0711 36.5218 24.0567L32.2818 19.8166C32.2723 19.8043 32.259 19.7956 32.244 19.7917C32.229 19.7879 32.2131 19.7892 32.1989 19.7954C32.1847 19.8016 32.173 19.8124 32.1656 19.826C32.1582 19.8397 32.1556 19.8554 32.1582 19.8707V28.3662C32.1592 28.3802 32.1644 28.3935 32.173 28.4045C32.1817 28.4155 32.1935 28.4236 32.2068 28.4277C32.2201 28.4319 32.2344 28.4319 32.2478 28.4279C32.2612 28.4238 32.273 28.4158 32.2818 28.4049Z" fill="white" style="fill:white;fill-opacity:1;"/>
<path d="M19.7087 32.3902L23.9487 36.6302C23.9632 36.6444 23.9826 36.6523 24.0028 36.6523C24.023 36.6523 24.0424 36.6444 24.0568 36.6302L28.2969 32.3902C28.3092 32.3807 28.3179 32.3674 28.3218 32.3524C28.3256 32.3374 28.3244 32.3215 28.3181 32.3073C28.3119 32.2931 28.3011 32.2813 28.2875 32.274C28.2739 32.2666 28.2581 32.264 28.2428 32.2666H19.7473C19.7333 32.2676 19.72 32.2727 19.709 32.2814C19.698 32.2901 19.6899 32.3019 19.6858 32.3152C19.6816 32.3286 19.6816 32.3429 19.6856 32.3562C19.6897 32.3696 19.6977 32.3814 19.7087 32.3902Z" fill="white" style="fill:white;fill-opacity:1;"/>
<path d="M15.7231 19.817L11.483 24.0571C11.4689 24.0715 11.4609 24.091 11.4609 24.1112C11.4609 24.1314 11.4689 24.1508 11.483 24.1652L15.7231 28.4053C15.7325 28.4176 15.7459 28.4263 15.7609 28.4302C15.7759 28.434 15.7918 28.4328 15.806 28.4265C15.8202 28.4203 15.8319 28.4095 15.8393 28.3959C15.8466 28.3822 15.8492 28.3665 15.8467 28.3512V19.8557C15.8457 19.8417 15.8405 19.8284 15.8318 19.8174C15.8232 19.8064 15.8114 19.7983 15.798 19.7942C15.7847 19.79 15.7704 19.79 15.757 19.794C15.7437 19.7981 15.7318 19.8061 15.7231 19.817Z" fill="white" style="fill:white;fill-opacity:1;"/>
</g>
<defs>
<clipPath id="clip0_18792_43789">
<rect width="48" height="48" rx="24" fill="white" style="fill:white;fill-opacity:1;"/>
</clipPath>
</defs>
</svg>
