<svg width="48" height="48" viewBox="0 0 48 48" fill="none" xmlns="http://www.w3.org/2000/svg">
<g clip-path="url(#clip0_18792_43803)">
<path d="M48 0H0V48H48V0Z" fill="#CD8B2A" style="fill:#CD8B2A;fill:color(display-p3 0.8039 0.5451 0.1647);fill-opacity:1;"/>
<path d="M36.7156 17.7959C35.8676 17.1623 34.9007 16.7057 33.8726 16.4533C32.8445 16.2009 31.7761 16.1579 30.7311 16.3268H30.6074C29.4167 16.6129 27.5146 17.1 25.3032 19.8294V19.8758C25.2954 19.9088 25.2954 19.9433 25.3032 19.9763C25.2942 20.0066 25.2942 20.0388 25.3032 20.0691L25.3496 20.1541C25.628 20.6258 25.9837 21.2211 26.2775 21.7778C26.2935 21.8089 26.3179 21.8348 26.348 21.8526C26.3781 21.8704 26.4126 21.8793 26.4476 21.8784C26.4722 21.8799 26.4968 21.8758 26.5195 21.8665C26.5423 21.8571 26.5626 21.8426 26.579 21.8242C26.5961 21.8096 26.6094 21.791 26.6177 21.7701C28.5893 19.0485 30.1357 18.6773 31.1873 18.4222H31.311C32.7635 18.2366 34.2321 18.6128 35.4166 19.4737C36.5764 20.3938 37.1718 21.8552 37.1718 23.8191C37.1718 27.1206 35.5636 28.4119 34.2182 28.9067C32.8685 29.3493 31.4 29.2523 30.1203 28.6361L30.0352 28.5974C28.8831 28.1026 27.1744 27.0511 25.5661 23.8268C22.3187 17.3088 19.6048 16.698 17.8342 16.2882H17.7336C16.7033 16.1228 15.6501 16.1677 14.6375 16.4201C13.625 16.6726 12.674 17.1274 11.8419 17.7572C10.6744 18.6851 9.29036 20.4943 9.29036 23.8346C9.1902 25.5546 9.71769 27.2525 10.7749 28.6129C11.6306 29.6757 12.7684 30.4759 14.058 30.9218C15.3476 31.3676 16.7367 31.441 18.0661 31.1335C19.109 30.9151 20.0877 30.4601 20.9269 29.8036L21.9476 30.7315C21.9627 30.7469 21.9807 30.7591 22.0006 30.7675C22.0206 30.7759 22.0419 30.7802 22.0635 30.7802C22.0852 30.7802 22.1065 30.7759 22.1265 30.7675C22.1464 30.7591 22.1644 30.7469 22.1795 30.7315C22.2087 30.7029 22.2253 30.664 22.2259 30.6232L22.9605 26.0846V26.0382C22.9614 26.0148 22.957 25.9915 22.9476 25.9701C22.9382 25.9487 22.9241 25.9296 22.9063 25.9145C22.8918 25.9011 22.8747 25.8907 22.8561 25.8841C22.8375 25.8775 22.8178 25.8746 22.7981 25.8758H22.7208L18.3677 27.0897H18.2903C18.2584 27.0974 18.229 27.1134 18.2053 27.1361C18.1899 27.1512 18.1776 27.1693 18.1693 27.1892C18.1609 27.2091 18.1566 27.2305 18.1566 27.2521C18.1566 27.2737 18.1609 27.2951 18.1693 27.315C18.1776 27.3349 18.1899 27.3529 18.2053 27.3681L18.2517 27.4222L19.2259 28.2959C18.7432 28.6222 18.2026 28.8531 17.6331 28.9763C16.7158 29.2011 15.754 29.1661 14.8555 28.8752C13.9569 28.5843 13.1571 28.0491 12.5455 27.3294C11.7781 26.3481 11.4058 25.1152 11.5017 23.8732C11.5017 21.9016 12.0816 20.4325 13.2259 19.5201C14.3841 18.6665 15.828 18.2951 17.2543 18.484H17.3548C18.8239 18.8165 20.8419 19.2572 23.6177 24.8552C25.0636 27.7469 26.8728 29.6413 29.146 30.6464C30.2288 31.1584 31.4122 31.4226 32.61 31.4196C33.4332 31.4251 34.2506 31.281 35.0223 30.9943C36.3368 30.5072 39.4063 28.8217 39.4063 23.8346C39.4063 20.5021 37.9991 18.6928 36.8161 17.7572" fill="white" style="fill:white;fill-opacity:1;"/>
</g>
<defs>
<clipPath id="clip0_18792_43803">
<rect width="48" height="48" rx="24" fill="white" style="fill:white;fill-opacity:1;"/>
</clipPath>
</defs>
</svg>
