<svg width="48" height="48" viewBox="0 0 48 48" fill="none" xmlns="http://www.w3.org/2000/svg">
<g clip-path="url(#clip0_18792_43796)">
<path d="M48 0H0V48H48V0Z" fill="#F99D25" style="fill:#F99D25;fill:color(display-p3 0.9765 0.6157 0.1451);fill-opacity:1;"/>
<path d="M7.48802 29.2411H14.7441C14.7674 29.2411 14.7906 29.2365 14.8122 29.2276C14.8338 29.2186 14.8534 29.2055 14.8699 29.189C14.8864 29.1725 14.8995 29.1529 14.9085 29.1313C14.9174 29.1097 14.922 29.0865 14.922 29.0632C14.9228 29.0417 14.919 29.0202 14.911 29.0003C14.903 28.9803 14.891 28.9622 14.8756 28.9471L11.2244 24.3057C11.2073 24.2881 11.1869 24.2743 11.1642 24.2649C11.1416 24.2556 11.1173 24.2511 11.0928 24.2516C11.0523 24.2404 11.0096 24.2404 10.9691 24.2516V24.2902L7.44933 28.9317L7.3565 28.9471C7.34861 28.9802 7.34861 29.0147 7.3565 29.0477C7.35136 29.0904 7.36184 29.1335 7.38601 29.169C7.41019 29.2046 7.44643 29.2302 7.48802 29.2411Z" fill="white" style="fill:white;fill-opacity:1;"/>
<path d="M14.721 29.8984H7.45723C7.41004 29.8984 7.36479 29.9172 7.33142 29.9506C7.29806 29.9839 7.2793 30.0292 7.2793 30.0764V35.7698C7.2793 35.817 7.29806 35.8623 7.33142 35.8956C7.36479 35.929 7.41004 35.9478 7.45723 35.9478H9.77793V32.3661C9.77793 32.3189 9.79667 32.2737 9.83004 32.2403C9.8634 32.207 9.90865 32.1882 9.95584 32.1882H12.1296C12.1768 32.1882 12.222 32.207 12.2554 32.2403C12.2888 32.2737 12.3075 32.3189 12.3075 32.3661V35.9478H14.7056C14.7528 35.9478 14.798 35.929 14.8314 35.8956C14.8647 35.8623 14.8835 35.817 14.8835 35.7698V30.0764C14.8837 30.0317 14.8671 29.9887 14.837 29.9557C14.8069 29.9228 14.7655 29.9023 14.721 29.8984Z" fill="white" style="fill:white;fill-opacity:1;"/>
<path d="M39.8468 28.4133H32.6526C32.6075 28.4133 32.5642 28.4312 32.5323 28.4631C32.5003 28.495 32.4824 28.5383 32.4824 28.5834V35.8473C32.4824 35.8924 32.5003 35.9357 32.5323 35.9676C32.5642 35.9995 32.6075 36.0175 32.6526 36.0175H39.8468C39.8698 36.0185 39.8927 36.0149 39.9143 36.0068C39.9358 35.9987 39.9555 35.9863 39.9722 35.9704C39.9888 35.9545 40.002 35.9354 40.0111 35.9142C40.0201 35.8931 40.0247 35.8703 40.0247 35.8473V28.5834C40.0247 28.5604 40.0201 28.5377 40.0111 28.5165C40.002 28.4953 39.9888 28.4762 39.9722 28.4603C39.9555 28.4444 39.9358 28.432 39.9143 28.4239C39.8927 28.4158 39.8698 28.4122 39.8468 28.4133ZM35.9093 33.1552C35.9093 33.2004 35.8914 33.2437 35.8595 33.2756C35.8276 33.3075 35.7843 33.3254 35.7391 33.3254H33.5809C33.5579 33.3265 33.5349 33.3228 33.5134 33.3148C33.4918 33.3067 33.4722 33.2943 33.4555 33.2784C33.4389 33.2625 33.4256 33.2434 33.4166 33.2222C33.4076 33.201 33.4029 33.1783 33.403 33.1552V31.8479C33.4029 31.8249 33.4076 31.8021 33.4166 31.781C33.4256 31.7598 33.4389 31.7407 33.4555 31.7248C33.4722 31.7088 33.4918 31.6965 33.5134 31.6884C33.5349 31.6803 33.5579 31.6767 33.5809 31.6777H35.7314C35.7537 31.6777 35.7759 31.6821 35.7965 31.6907C35.8172 31.6992 35.8359 31.7118 35.8518 31.7276C35.8676 31.7434 35.8801 31.7621 35.8886 31.7828C35.8972 31.8034 35.9016 31.8256 35.9016 31.8479L35.9093 33.1552ZM35.9093 30.7417C35.9093 30.7868 35.8914 30.8301 35.8595 30.8621C35.8276 30.894 35.7843 30.9119 35.7391 30.9119H33.5809C33.5579 30.9129 33.5349 30.9093 33.5134 30.9012C33.4918 30.8931 33.4722 30.8808 33.4555 30.8649C33.4389 30.849 33.4256 30.8298 33.4166 30.8087C33.4076 30.7875 33.4029 30.7647 33.403 30.7417V29.4344C33.4029 29.4114 33.4076 29.3886 33.4166 29.3674C33.4256 29.3462 33.4389 29.3271 33.4555 29.3112C33.4722 29.2953 33.4918 29.2829 33.5134 29.2749C33.5349 29.2668 33.5579 29.2631 33.5809 29.2642H35.7314C35.7537 29.2642 35.7759 29.2686 35.7965 29.2771C35.8172 29.2857 35.8359 29.2982 35.8518 29.314C35.8676 29.3298 35.8801 29.3486 35.8886 29.3692C35.8972 29.3899 35.9016 29.412 35.9016 29.4344L35.9093 30.7417ZM39.197 33.1552C39.197 33.1783 39.1924 33.201 39.1834 33.2222C39.1743 33.2434 39.1611 33.2625 39.1444 33.2784C39.1278 33.2943 39.1081 33.3067 39.0866 33.3148C39.065 33.3228 39.0421 33.3265 39.0191 33.3254H36.8763C36.8533 33.3265 36.8303 33.3228 36.8088 33.3148C36.7872 33.3067 36.7675 33.2943 36.7509 33.2784C36.7343 33.2625 36.7211 33.2434 36.712 33.2222C36.703 33.201 36.6983 33.1783 36.6984 33.1552V31.8479C36.6983 31.8249 36.703 31.8021 36.712 31.781C36.7211 31.7598 36.7343 31.7407 36.7509 31.7248C36.7675 31.7088 36.7872 31.6965 36.8088 31.6884C36.8303 31.6803 36.8533 31.6767 36.8763 31.6777H39.0191C39.0421 31.6767 39.065 31.6803 39.0866 31.6884C39.1081 31.6965 39.1278 31.7088 39.1444 31.7248C39.1611 31.7407 39.1743 31.7598 39.1834 31.781C39.1924 31.8021 39.197 31.8249 39.197 31.8479V33.1552ZM39.197 30.7417C39.197 30.7647 39.1924 30.7875 39.1834 30.8087C39.1743 30.8298 39.1611 30.849 39.1444 30.8649C39.1278 30.8808 39.1081 30.8931 39.0866 30.9012C39.065 30.9093 39.0421 30.9129 39.0191 30.9119H36.8763C36.8533 30.9129 36.8303 30.9093 36.8088 30.9012C36.7872 30.8931 36.7675 30.8808 36.7509 30.8649C36.7343 30.849 36.7211 30.8298 36.712 30.8087C36.703 30.7875 36.6983 30.7647 36.6984 30.7417V29.4344C36.6983 29.4114 36.703 29.3886 36.712 29.3674C36.7211 29.3462 36.7343 29.3271 36.7509 29.3112C36.7675 29.2953 36.7872 29.2829 36.8088 29.2749C36.8303 29.2668 36.8533 29.2631 36.8763 29.2642H39.0191C39.0421 29.2631 39.065 29.2668 39.0866 29.2749C39.1081 29.2829 39.1278 29.2953 39.1444 29.3112C39.1611 29.3271 39.1743 29.3462 39.1834 29.3674C39.1924 29.3886 39.197 29.4114 39.197 29.4344V30.7417Z" fill="white" style="fill:white;fill-opacity:1;"/>
<path d="M23.1217 11.5498H16.0822C16.035 11.5498 15.9898 11.5686 15.9564 11.6019C15.9231 11.6353 15.9043 11.6805 15.9043 11.7277V35.7857C15.9043 35.8088 15.9089 35.8315 15.918 35.8527C15.927 35.8739 15.9402 35.893 15.9568 35.9089C15.9735 35.9248 15.9932 35.9372 16.0147 35.9453C16.0363 35.9534 16.0592 35.957 16.0822 35.9559H23.1217C23.1668 35.9559 23.2101 35.938 23.242 35.9061C23.274 35.8742 23.2919 35.8309 23.2919 35.7857V11.7277C23.2929 11.7047 23.2893 11.6818 23.2812 11.6602C23.2731 11.6387 23.2608 11.619 23.2449 11.6024C23.229 11.5857 23.2098 11.5725 23.1887 11.5635C23.1675 11.5544 23.1447 11.5498 23.1217 11.5498ZM18.929 33.2098C18.929 33.2344 18.9192 33.258 18.9018 33.2754C18.8844 33.2928 18.8608 33.3026 18.8361 33.3026H17.2271C17.2025 33.3026 17.1789 33.2928 17.1615 33.2754C17.1441 33.258 17.1343 33.2344 17.1343 33.2098V31.4073C17.1342 31.3955 17.1367 31.3838 17.1414 31.3729C17.1462 31.362 17.1531 31.3523 17.1619 31.3443C17.1706 31.3363 17.1809 31.3302 17.1922 31.3264C17.2034 31.3226 17.2153 31.3212 17.2271 31.3223H18.8361C18.8479 31.3212 18.8598 31.3226 18.8711 31.3264C18.8823 31.3302 18.8926 31.3363 18.9014 31.3443C18.9101 31.3523 18.9171 31.362 18.9218 31.3729C18.9266 31.3838 18.929 31.3955 18.929 31.4073V33.2098ZM18.929 29.0789C18.929 29.1035 18.9192 29.1271 18.9018 29.1445C18.8844 29.1619 18.8608 29.1717 18.8361 29.1717H17.2271C17.2025 29.1717 17.1789 29.1619 17.1615 29.1445C17.1441 29.1271 17.1343 29.1035 17.1343 29.0789V27.2842C17.1343 27.2596 17.1441 27.236 17.1615 27.2186C17.1789 27.2012 17.2025 27.1914 17.2271 27.1914H18.8361C18.8608 27.1914 18.8844 27.2012 18.9018 27.2186C18.9192 27.236 18.929 27.2596 18.929 27.2842V29.0789ZM18.929 24.9558C18.929 24.9804 18.9192 25.004 18.9018 25.0214C18.8844 25.0388 18.8608 25.0486 18.8361 25.0486H17.2271C17.2025 25.0486 17.1789 25.0388 17.1615 25.0214C17.1441 25.004 17.1343 24.9804 17.1343 24.9558V23.1611C17.1343 23.1365 17.1441 23.1129 17.1615 23.0955C17.1789 23.078 17.2025 23.0683 17.2271 23.0683H18.8361C18.8608 23.0683 18.8844 23.078 18.9018 23.0955C18.9192 23.1129 18.929 23.1365 18.929 23.1611V24.9558ZM18.929 20.8326C18.929 20.8573 18.9192 20.8809 18.9018 20.8983C18.8844 20.9157 18.8608 20.9255 18.8361 20.9255H17.2271C17.2025 20.9255 17.1789 20.9157 17.1615 20.8983C17.1441 20.8809 17.1343 20.8573 17.1343 20.8326V19.0457C17.1343 19.0211 17.1441 18.9975 17.1615 18.9801C17.1789 18.9626 17.2025 18.9529 17.2271 18.9529H18.8361C18.8608 18.9529 18.8844 18.9626 18.9018 18.9801C18.9192 18.9975 18.929 19.0211 18.929 19.0457V20.8326ZM18.929 16.7095C18.929 16.7341 18.9192 16.7577 18.9018 16.7752C18.8844 16.7926 18.8608 16.8024 18.8361 16.8024H17.2271C17.2025 16.8024 17.1789 16.7926 17.1615 16.7752C17.1441 16.7577 17.1343 16.7341 17.1343 16.7095V14.9071C17.1343 14.8825 17.1441 14.8589 17.1615 14.8415C17.1789 14.8241 17.2025 14.8143 17.2271 14.8143H18.8361C18.8608 14.8143 18.8844 14.8241 18.9018 14.8415C18.9192 14.8589 18.929 14.8825 18.929 14.9071V16.7095ZM22.0929 33.2098C22.0929 33.2344 22.0831 33.258 22.0657 33.2754C22.0483 33.2928 22.0246 33.3026 22 33.3026H20.391C20.3664 33.3026 20.3428 33.2928 20.3254 33.2754C20.308 33.258 20.2982 33.2344 20.2982 33.2098V31.4073C20.2981 31.3955 20.3006 31.3838 20.3053 31.3729C20.3101 31.362 20.317 31.3523 20.3258 31.3443C20.3345 31.3363 20.3448 31.3302 20.3561 31.3264C20.3673 31.3226 20.3792 31.3212 20.391 31.3223H22C22.0118 31.3212 22.0237 31.3226 22.035 31.3264C22.0462 31.3302 22.0565 31.3363 22.0653 31.3443C22.074 31.3523 22.081 31.362 22.0857 31.3729C22.0905 31.3838 22.0929 31.3955 22.0929 31.4073V33.2098ZM22.0929 29.0789C22.0929 29.1035 22.0831 29.1271 22.0657 29.1445C22.0483 29.1619 22.0246 29.1717 22 29.1717H20.391C20.3664 29.1717 20.3428 29.1619 20.3254 29.1445C20.308 29.1271 20.2982 29.1035 20.2982 29.0789V27.2842C20.2982 27.2596 20.308 27.236 20.3254 27.2186C20.3428 27.2012 20.3664 27.1914 20.391 27.1914H22C22.0246 27.1914 22.0483 27.2012 22.0657 27.2186C22.0831 27.236 22.0929 27.2596 22.0929 27.2842V29.0789ZM22.0929 24.9558C22.0929 24.968 22.0905 24.98 22.0858 24.9913C22.0811 25.0026 22.0743 25.0128 22.0657 25.0214C22.0571 25.03 22.0468 25.0369 22.0356 25.0415C22.0243 25.0462 22.0122 25.0486 22 25.0486H20.391C20.3788 25.0486 20.3667 25.0462 20.3555 25.0415C20.3442 25.0369 20.334 25.03 20.3254 25.0214C20.3167 25.0128 20.3099 25.0026 20.3052 24.9913C20.3006 24.98 20.2982 24.968 20.2982 24.9558V23.1611C20.2982 23.1365 20.308 23.1129 20.3254 23.0955C20.3428 23.078 20.3664 23.0683 20.391 23.0683H22C22.0246 23.0683 22.0483 23.078 22.0657 23.0955C22.0831 23.1129 22.0929 23.1365 22.0929 23.1611V24.9558ZM22.0929 20.8326C22.0929 20.8573 22.0831 20.8809 22.0657 20.8983C22.0483 20.9157 22.0246 20.9255 22 20.9255H20.391C20.3664 20.9255 20.3428 20.9157 20.3254 20.8983C20.308 20.8809 20.2982 20.8573 20.2982 20.8326V19.0457C20.2982 19.0211 20.308 18.9975 20.3254 18.9801C20.3428 18.9626 20.3664 18.9529 20.391 18.9529H22C22.0246 18.9529 22.0483 18.9626 22.0657 18.9801C22.0831 18.9975 22.0929 19.0211 22.0929 19.0457V20.8326ZM22.0929 16.7095C22.0929 16.7341 22.0831 16.7577 22.0657 16.7752C22.0483 16.7926 22.0246 16.8024 22 16.8024H20.391C20.3664 16.8024 20.3428 16.7926 20.3254 16.7752C20.308 16.7577 20.2982 16.7341 20.2982 16.7095V14.9071C20.2982 14.8825 20.308 14.8589 20.3254 14.8415C20.3428 14.8241 20.3664 14.8143 20.391 14.8143H22C22.0246 14.8143 22.0483 14.8241 22.0657 14.8415C22.0831 14.8589 22.0929 14.8825 22.0929 14.9071V16.7095Z" fill="white" style="fill:white;fill-opacity:1;"/>
<path d="M39.8623 26.0928H32.6294C32.5482 26.0928 32.4824 26.1586 32.4824 26.2398V27.6863C32.4824 27.7675 32.5482 27.8333 32.6294 27.8333H39.8623C39.9434 27.8333 40.0092 27.7675 40.0092 27.6863V26.2398C40.0092 26.1586 39.9434 26.0928 39.8623 26.0928Z" fill="white" style="fill:white;fill-opacity:1;"/>
<path d="M31.6237 16.0984C31.6124 16.0595 31.5891 16.0251 31.5572 16.0001C31.5253 15.9751 31.4863 15.9608 31.4458 15.9591C31.4131 15.9485 31.3779 15.9485 31.3452 15.9591L31.2911 16.0288L24.3754 24.8552C24.3561 24.873 24.3408 24.8945 24.3301 24.9185C24.3195 24.9424 24.3138 24.9682 24.3135 24.9944V35.778C24.3135 35.8252 24.3322 35.8704 24.3656 35.9038C24.3989 35.9372 24.4442 35.9559 24.4914 35.9559H31.5231C31.5461 35.9559 31.5689 35.9513 31.5901 35.9423C31.6113 35.9332 31.6304 35.92 31.6463 35.9034C31.6622 35.8867 31.6746 35.8671 31.6827 35.8455C31.6907 35.824 31.6944 35.801 31.6933 35.778V16.1293C31.6725 16.1143 31.6488 16.1038 31.6237 16.0984ZM28.7073 20.8636L28.7615 20.8017C29.2334 20.1906 30.0301 19.2081 30.4169 18.7363L30.4711 18.6744C30.4895 18.6508 30.5129 18.6316 30.5397 18.6182C30.5665 18.6048 30.5959 18.5976 30.6258 18.597C30.6713 18.5993 30.7149 18.6164 30.7498 18.6457C30.7847 18.675 30.8091 18.715 30.8192 18.7595V20.9796C30.8192 21.0316 30.7991 21.0817 30.763 21.1192C30.727 21.1567 30.6778 21.1787 30.6258 21.1807H28.862C28.8101 21.1787 28.7609 21.1567 28.7248 21.1192C28.6888 21.0817 28.6686 21.0316 28.6687 20.9796C28.6687 20.9378 28.6822 20.8971 28.7073 20.8636ZM27.6166 33.1556C27.6166 33.1786 27.612 33.2014 27.603 33.2226C27.5939 33.2437 27.5807 33.2629 27.5641 33.2788C27.5474 33.2947 27.5277 33.307 27.5062 33.3151C27.4846 33.3232 27.4617 33.3268 27.4387 33.3258H25.3423C25.2972 33.3258 25.2539 33.3079 25.222 33.2759C25.19 33.244 25.1721 33.2007 25.1721 33.1556V31.8405C25.1721 31.7954 25.19 31.7521 25.222 31.7202C25.2539 31.6883 25.2972 31.6704 25.3423 31.6704H27.4696C27.4926 31.6693 27.5156 31.6729 27.5371 31.681C27.5587 31.6891 27.5784 31.7015 27.595 31.7174C27.6116 31.7333 27.6249 31.7524 27.6339 31.7736C27.6429 31.7947 27.6476 31.8175 27.6476 31.8405L27.6166 33.1556ZM27.6166 30.7266C27.6166 30.7496 27.612 30.7724 27.603 30.7936C27.5939 30.8147 27.5807 30.8338 27.5641 30.8498C27.5474 30.8657 27.5277 30.878 27.5062 30.8861C27.4846 30.8942 27.4617 30.8978 27.4387 30.8968H25.3423C25.2972 30.8968 25.2539 30.8788 25.222 30.8469C25.19 30.815 25.1721 30.7717 25.1721 30.7266V29.4115C25.1721 29.3664 25.19 29.3231 25.222 29.2912C25.2539 29.2593 25.2972 29.2413 25.3423 29.2413H27.4696C27.4926 29.2403 27.5156 29.2439 27.5371 29.252C27.5587 29.2601 27.5784 29.2725 27.595 29.2884C27.6116 29.3043 27.6249 29.3234 27.6339 29.3446C27.6429 29.3657 27.6476 29.3885 27.6476 29.4115L27.6166 30.7266ZM27.6166 28.2976C27.6166 28.3448 27.5979 28.39 27.5645 28.4234C27.5311 28.4568 27.4859 28.4755 27.4387 28.4755H25.3423C25.3193 28.4755 25.2965 28.4709 25.2753 28.4618C25.2542 28.4528 25.2351 28.4396 25.2192 28.423C25.2032 28.4063 25.1909 28.3866 25.1828 28.3651C25.1747 28.3435 25.1711 28.3206 25.1721 28.2976V26.9903C25.1711 26.9673 25.1747 26.9443 25.1828 26.9227C25.1909 26.9012 25.2032 26.8815 25.2192 26.8649C25.2351 26.8483 25.2542 26.835 25.2753 26.826C25.2965 26.8169 25.3193 26.8123 25.3423 26.8123H27.4696C27.5168 26.8123 27.5621 26.8311 27.5954 26.8644C27.6288 26.8978 27.6476 26.9431 27.6476 26.9903L27.6166 28.2976ZM27.6166 22.9832V25.8531C27.6166 25.8982 27.5987 25.9415 27.5668 25.9734C27.5348 26.0054 27.4916 26.0233 27.4464 26.0233H25.3501C25.3253 26.0279 25.2998 26.0269 25.2754 26.0204C25.251 26.0139 25.2284 26.0021 25.2091 25.9859C25.1899 25.9696 25.1745 25.9492 25.1641 25.9263C25.1537 25.9033 25.1485 25.8783 25.1489 25.8531V25.4895C25.1445 25.4691 25.1445 25.448 25.1489 25.4276C25.4197 25.0486 26.6264 23.5556 27.137 22.9367L27.1912 22.8749C27.2143 22.8462 27.2452 22.8247 27.2802 22.813C27.3151 22.8013 27.3527 22.7998 27.3885 22.8088C27.4243 22.8177 27.4567 22.8367 27.4821 22.8635C27.5074 22.8903 27.5246 22.9237 27.5315 22.9599L27.6166 22.9832ZM30.8192 33.1556C30.8192 33.2007 30.8013 33.244 30.7693 33.2759C30.7374 33.3079 30.6941 33.3258 30.649 33.3258H28.5526C28.5303 33.3258 28.5081 33.3214 28.4875 33.3128C28.4668 33.3043 28.4481 33.2917 28.4323 33.2759C28.4165 33.2601 28.4039 33.2414 28.3954 33.2207C28.3868 33.2001 28.3824 33.178 28.3824 33.1556V31.8405C28.3824 31.8182 28.3868 31.7961 28.3954 31.7754C28.4039 31.7548 28.4165 31.736 28.4323 31.7202C28.4481 31.7044 28.4668 31.6919 28.4875 31.6833C28.5081 31.6747 28.5303 31.6704 28.5526 31.6704H30.649C30.6941 31.6704 30.7374 31.6883 30.7693 31.7202C30.8013 31.7521 30.8192 31.7954 30.8192 31.8405V33.1556ZM30.8192 30.7266C30.8192 30.7717 30.8013 30.815 30.7693 30.8469C30.7374 30.8788 30.6941 30.8968 30.649 30.8968H28.5526C28.5303 30.8968 28.5081 30.8924 28.4875 30.8838C28.4668 30.8753 28.4481 30.8627 28.4323 30.8469C28.4165 30.8311 28.4039 30.8124 28.3954 30.7917C28.3868 30.7711 28.3824 30.7489 28.3824 30.7266V29.4115C28.3824 29.3892 28.3868 29.367 28.3954 29.3464C28.4039 29.3257 28.4165 29.307 28.4323 29.2912C28.4481 29.2754 28.4668 29.2628 28.4875 29.2543C28.5081 29.2457 28.5303 29.2413 28.5526 29.2413H30.649C30.6941 29.2413 30.7374 29.2593 30.7693 29.2912C30.8013 29.3231 30.8192 29.3664 30.8192 29.4115V30.7266ZM30.8192 28.2976C30.8202 28.3206 30.8166 28.3435 30.8085 28.3651C30.8004 28.3866 30.7881 28.4063 30.7721 28.423C30.7562 28.4396 30.7371 28.4528 30.716 28.4618C30.6948 28.4709 30.672 28.4755 30.649 28.4755H28.5526C28.5296 28.4755 28.5068 28.4709 28.4857 28.4618C28.4645 28.4528 28.4454 28.4396 28.4295 28.423C28.4136 28.4063 28.4012 28.3866 28.3931 28.3651C28.385 28.3435 28.3814 28.3206 28.3824 28.2976V26.9903C28.3814 26.9673 28.385 26.9443 28.3931 26.9227C28.4012 26.9012 28.4136 26.8815 28.4295 26.8649C28.4454 26.8483 28.4645 26.835 28.4857 26.826C28.5068 26.8169 28.5296 26.8123 28.5526 26.8123H30.649C30.672 26.8123 30.6948 26.8169 30.716 26.826C30.7371 26.835 30.7562 26.8483 30.7721 26.8649C30.7881 26.8815 30.8004 26.9012 30.8085 26.9227C30.8166 26.9443 30.8202 26.9673 30.8192 26.9903V28.2976ZM30.8192 25.8763C30.8192 25.9214 30.8013 25.9647 30.7693 25.9966C30.7374 26.0286 30.6941 26.0465 30.649 26.0465H28.5526C28.5303 26.0465 28.5081 26.0421 28.4875 26.0335C28.4668 26.025 28.4481 26.0125 28.4323 25.9966C28.4165 25.9808 28.4039 25.9621 28.3954 25.9414C28.3868 25.9208 28.3824 25.8987 28.3824 25.8763V24.5612C28.3824 24.5389 28.3868 24.5168 28.3954 24.4961C28.4039 24.4755 28.4165 24.4567 28.4323 24.4409C28.4481 24.4251 28.4668 24.4126 28.4875 24.404C28.5081 24.3955 28.5303 24.3911 28.5526 24.3911H30.649C30.6941 24.3911 30.7374 24.409 30.7693 24.4409C30.8013 24.4728 30.8192 24.5161 30.8192 24.5612V25.8763ZM30.8192 23.4473C30.8192 23.4924 30.8013 23.5357 30.7693 23.5676C30.7374 23.5996 30.6941 23.6175 30.649 23.6175H28.5526C28.5303 23.6175 28.5081 23.6131 28.4875 23.6045C28.4668 23.596 28.4481 23.5834 28.4323 23.5676C28.4165 23.5518 28.4039 23.5331 28.3954 23.5124C28.3868 23.4918 28.3824 23.4696 28.3824 23.4473V22.1322C28.3824 22.1099 28.3868 22.0877 28.3954 22.0671C28.4039 22.0465 28.4165 22.0277 28.4323 22.0119C28.4481 21.9961 28.4668 21.9835 28.4875 21.975C28.5081 21.9664 28.5303 21.962 28.5526 21.962H30.649C30.6941 21.962 30.7374 21.98 30.7693 22.0119C30.8013 22.0438 30.8192 22.0871 30.8192 22.1322V23.4473Z" fill="white" style="fill:white;fill-opacity:1;"/>
</g>
<defs>
<clipPath id="clip0_18792_43796">
<rect width="48" height="48" rx="24" fill="white" style="fill:white;fill-opacity:1;"/>
</clipPath>
</defs>
</svg>
