<svg width="48" height="48" viewBox="0 0 48 48" fill="none" xmlns="http://www.w3.org/2000/svg">
<g clip-path="url(#clip0_18792_43735)">
<path d="M48 0H0V48H48V0Z" fill="#D19F2A" style="fill:#D19F2A;fill:color(display-p3 0.8196 0.6235 0.1647);fill-opacity:1;"/>
<path d="M19.9893 33.9713V34.6843C19.9932 34.7646 20.0273 34.8404 20.0849 34.8964C20.1424 34.9525 20.219 34.9847 20.2993 34.9866H28.3213C28.4043 34.9828 28.483 34.9481 28.5418 34.8893C28.6006 34.8305 28.6353 34.7519 28.6391 34.6688V33.8938C30.7902 33.2305 32.7202 31.9942 34.2222 30.3175C35.7241 28.6407 36.7414 26.5868 37.1648 24.3759V24.3062C37.1648 24.2219 37.1313 24.141 37.0717 24.0815C37.0121 24.0219 36.9313 23.9884 36.847 23.9884H11.5023C11.4599 23.9873 11.4178 23.9948 11.3783 24.0103C11.3388 24.0258 11.3029 24.0491 11.2726 24.0787C11.2422 24.1083 11.2181 24.1437 11.2017 24.1827C11.1852 24.2218 11.1767 24.2638 11.1768 24.3062V24.4534C11.6221 26.6959 12.6786 28.7717 14.2297 30.4513C15.7808 32.131 17.766 33.3492 19.966 33.9713" fill="white" style="fill:white;fill-opacity:1;"/>
<path d="M28.5931 13.1686C28.4846 13.3158 26.0354 16.8424 28.6474 19.6946C29.0998 20.0853 29.418 20.6083 29.557 21.1896C29.6961 21.771 29.649 22.3813 29.4225 22.9344H31.0889C31.2859 22.2141 31.2824 21.4537 31.0789 20.7353C30.8754 20.0168 30.4795 19.3675 29.934 18.8576C28.0118 16.7571 29.934 13.9126 29.9883 13.8661C30.0418 13.79 30.0775 13.7028 30.0927 13.611C30.108 13.5192 30.1024 13.4252 30.0763 13.3358C30.0503 13.2465 30.0044 13.1642 29.9422 13.095C29.88 13.0258 29.803 12.9714 29.717 12.936C29.5351 12.8409 29.3257 12.8121 29.1249 12.8545C28.9241 12.897 28.7443 13.008 28.6164 13.1686" fill="white" style="fill:white;fill-opacity:1;"/>
<path d="M24.3531 22.9344H25.9962C26.1897 22.2133 26.1837 21.4532 25.979 20.7351C25.7742 20.0171 25.3783 19.3682 24.8336 18.8576C22.9114 16.7571 24.8336 13.9126 24.8879 13.8661C24.9414 13.79 24.9771 13.7028 24.9923 13.611C25.0076 13.5192 25.002 13.4252 24.9759 13.3358C24.9498 13.2465 24.904 13.1642 24.8418 13.095C24.7796 13.0258 24.7026 12.9714 24.6166 12.936C24.4347 12.8409 24.2253 12.8121 24.0245 12.8545C23.8237 12.897 23.6439 13.008 23.516 13.1686C23.4075 13.3158 20.9583 16.8424 23.5702 19.6946C24.0226 20.0853 24.3408 20.6083 24.4799 21.1896C24.619 21.771 24.5719 22.3813 24.3453 22.9344" fill="white" style="fill:white;fill-opacity:1;"/>
<path d="M18.5013 13.1686C18.3928 13.3158 15.9436 16.8424 18.5556 19.6946C19.008 20.0853 19.3262 20.6083 19.4652 21.1896C19.6043 21.771 19.5572 22.3813 19.3307 22.9344H21.0048C21.2017 22.2135 21.1975 21.4524 20.9926 20.7337C20.7876 20.015 20.3898 19.3662 19.8422 18.8576C17.92 16.7571 19.8422 13.9126 19.8965 13.8661C19.95 13.79 19.9857 13.7028 20.0009 13.611C20.0162 13.5192 20.0106 13.4252 19.9845 13.3358C19.9585 13.2465 19.9126 13.1642 19.8504 13.095C19.7882 13.0258 19.7112 12.9714 19.6252 12.936C19.4433 12.8409 19.2339 12.8121 19.0331 12.8545C18.8323 12.897 18.6525 13.008 18.5246 13.1686" fill="white" style="fill:white;fill-opacity:1;"/>
</g>
<defs>
<clipPath id="clip0_18792_43735">
<rect width="48" height="48" rx="24" fill="white" style="fill:white;fill-opacity:1;"/>
</clipPath>
</defs>
</svg>
